<svg width="220" height="272" viewBox="0 0 220 272" fill="none" xmlns="http://www.w3.org/2000/svg">
<path d="M220 110C220 170.751 170.751 220 110 220C49.2487 220 0 170.751 0 110C0 49.2487 49.2487 0 110 0C170.751 0 220 49.2487 220 110ZM33 110C33 152.526 67.4741 187 110 187C152.526 187 187 152.526 187 110C187 67.4741 152.526 33 110 33C67.4741 33 33 67.4741 33 110Z" fill="#EDEEFF"/>
<path d="M38.3749 49.8993C31.3941 44.0418 30.4128 33.5216 37.2478 27.4947C48.2377 17.804 61.0965 10.3687 75.0965 5.68439C94.3346 -0.752592 114.978 -1.74417 134.745 2.8193C154.511 7.38276 172.631 17.3235 187.1 31.5425C201.569 45.7614 211.825 63.7047 216.733 83.3886C221.64 103.072 221.009 123.73 214.909 143.078C208.809 162.425 197.477 179.709 182.166 193.018C166.856 206.327 148.163 215.143 128.155 218.491C113.595 220.928 98.7505 220.4 84.4975 217.003C75.6331 214.89 71.5606 205.141 74.9743 196.692C78.388 188.243 88.0151 184.355 96.997 185.894C105.466 187.345 114.157 187.375 122.709 185.944C136.714 183.6 149.799 177.429 160.517 168.113C171.234 158.796 179.166 146.698 183.436 133.154C187.706 119.611 188.148 105.151 184.713 91.372C181.277 77.5933 174.099 65.033 163.97 55.0797C153.841 45.1264 141.158 38.1679 127.321 34.9735C113.485 31.7791 99.0342 32.4732 85.5676 36.9791C77.3454 39.7302 69.6856 43.8368 62.8889 49.094C55.6808 54.6694 45.3556 55.7569 38.3749 49.8993Z" fill="#7579FF"/>
<path d="M92.6901 100.572L83.1141 123H78.0021L87.6501 101.148H75.3381V96.828H92.6901V100.572ZM95.7088 109.536C95.7088 105.384 96.4528 102.132 97.9408 99.78C99.4528 97.428 101.949 96.252 105.429 96.252C108.909 96.252 111.393 97.428 112.881 99.78C114.393 102.132 115.149 105.384 115.149 109.536C115.149 113.712 114.393 116.988 112.881 119.364C111.393 121.74 108.909 122.928 105.429 122.928C101.949 122.928 99.4528 121.74 97.9408 119.364C96.4528 116.988 95.7088 113.712 95.7088 109.536ZM110.181 109.536C110.181 107.76 110.061 106.272 109.821 105.072C109.605 103.848 109.149 102.852 108.453 102.084C107.781 101.316 106.773 100.932 105.429 100.932C104.085 100.932 103.065 101.316 102.369 102.084C101.697 102.852 101.241 103.848 101.001 105.072C100.785 106.272 100.677 107.76 100.677 109.536C100.677 111.36 100.785 112.896 101.001 114.144C101.217 115.368 101.673 116.364 102.369 117.132C103.065 117.876 104.085 118.248 105.429 118.248C106.773 118.248 107.793 117.876 108.489 117.132C109.185 116.364 109.641 115.368 109.857 114.144C110.073 112.896 110.181 111.36 110.181 109.536ZM118.406 103.2C118.406 101.376 118.934 99.948 119.99 98.916C121.07 97.884 122.45 97.368 124.13 97.368C125.81 97.368 127.178 97.884 128.234 98.916C129.314 99.948 129.854 101.376 129.854 103.2C129.854 105.048 129.314 106.488 128.234 107.52C127.178 108.552 125.81 109.068 124.13 109.068C122.45 109.068 121.07 108.552 119.99 107.52C118.934 106.488 118.406 105.048 118.406 103.2ZM141.518 97.8L127.37 123H122.474L136.586 97.8H141.518ZM124.094 100.392C122.774 100.392 122.114 101.328 122.114 103.2C122.114 105.096 122.774 106.044 124.094 106.044C124.742 106.044 125.246 105.816 125.606 105.36C125.966 104.88 126.146 104.16 126.146 103.2C126.146 101.328 125.462 100.392 124.094 100.392ZM134.21 117.564C134.21 115.716 134.738 114.288 135.794 113.28C136.874 112.248 138.254 111.732 139.934 111.732C141.614 111.732 142.97 112.248 144.002 113.28C145.058 114.288 145.586 115.716 145.586 117.564C145.586 119.412 145.058 120.852 144.002 121.884C142.97 122.916 141.614 123.432 139.934 123.432C138.23 123.432 136.85 122.916 135.794 121.884C134.738 120.852 134.21 119.412 134.21 117.564ZM139.898 114.756C138.53 114.756 137.846 115.692 137.846 117.564C137.846 119.46 138.53 120.408 139.898 120.408C141.242 120.408 141.914 119.46 141.914 117.564C141.914 115.692 141.242 114.756 139.898 114.756Z" fill="#5F6073"/>
<path d="M60.2318 253.384C60.8398 253.48 61.3918 253.728 61.8878 254.128C62.3998 254.528 62.7998 255.024 63.0878 255.616C63.3918 256.208 63.5438 256.84 63.5438 257.512C63.5438 258.36 63.3278 259.128 62.8958 259.816C62.4638 260.488 61.8318 261.024 60.9998 261.424C60.1838 261.808 59.2158 262 58.0958 262H51.8558V245.272H57.8558C58.9918 245.272 59.9598 245.464 60.7598 245.848C61.5598 246.216 62.1598 246.72 62.5598 247.36C62.9598 248 63.1598 248.72 63.1598 249.52C63.1598 250.512 62.8878 251.336 62.3438 251.992C61.8158 252.632 61.1118 253.096 60.2318 253.384ZM54.0398 252.496H57.7118C58.7358 252.496 59.5278 252.256 60.0878 251.776C60.6478 251.296 60.9278 250.632 60.9278 249.784C60.9278 248.936 60.6478 248.272 60.0878 247.792C59.5278 247.312 58.7198 247.072 57.6638 247.072H54.0398V252.496ZM57.9038 260.2C58.9918 260.2 59.8398 259.944 60.4478 259.432C61.0558 258.92 61.3598 258.208 61.3598 257.296C61.3598 256.368 61.0398 255.64 60.3998 255.112C59.7598 254.568 58.9038 254.296 57.8318 254.296H54.0398V260.2H57.9038ZM72.3106 262.216C71.0786 262.216 69.9586 261.936 68.9506 261.376C67.9586 260.816 67.1746 260.024 66.5986 259C66.0386 257.96 65.7586 256.76 65.7586 255.4C65.7586 254.056 66.0466 252.872 66.6226 251.848C67.2146 250.808 68.0146 250.016 69.0226 249.472C70.0306 248.912 71.1586 248.632 72.4066 248.632C73.6546 248.632 74.7826 248.912 75.7906 249.472C76.7986 250.016 77.5906 250.8 78.1666 251.824C78.7586 252.848 79.0546 254.04 79.0546 255.4C79.0546 256.76 78.7506 257.96 78.1426 259C77.5506 260.024 76.7426 260.816 75.7186 261.376C74.6946 261.936 73.5586 262.216 72.3106 262.216ZM72.3106 260.296C73.0946 260.296 73.8306 260.112 74.5186 259.744C75.2066 259.376 75.7586 258.824 76.1746 258.088C76.6066 257.352 76.8226 256.456 76.8226 255.4C76.8226 254.344 76.6146 253.448 76.1986 252.712C75.7826 251.976 75.2386 251.432 74.5666 251.08C73.8946 250.712 73.1666 250.528 72.3826 250.528C71.5826 250.528 70.8466 250.712 70.1746 251.08C69.5186 251.432 68.9906 251.976 68.5906 252.712C68.1906 253.448 67.9906 254.344 67.9906 255.4C67.9906 256.472 68.1826 257.376 68.5666 258.112C68.9666 258.848 69.4946 259.4 70.1506 259.768C70.8066 260.12 71.5266 260.296 72.3106 260.296ZM88.7901 262L85.6701 257.104L82.6701 262H80.3901L84.6381 255.472L80.3901 248.848H82.8621L85.9821 253.72L88.9581 248.848H91.2381L87.0141 255.352L91.2621 262H88.7901ZM116.777 245.392V262H114.593V249.616L109.073 262H107.537L101.993 249.592V262H99.8089V245.392H102.161L108.305 259.12L114.449 245.392H116.777ZM126.217 262.216C124.985 262.216 123.865 261.936 122.857 261.376C121.865 260.816 121.081 260.024 120.505 259C119.945 257.96 119.665 256.76 119.665 255.4C119.665 254.056 119.953 252.872 120.529 251.848C121.121 250.808 121.921 250.016 122.929 249.472C123.937 248.912 125.065 248.632 126.313 248.632C127.561 248.632 128.689 248.912 129.697 249.472C130.705 250.016 131.497 250.8 132.073 251.824C132.665 252.848 132.961 254.04 132.961 255.4C132.961 256.76 132.657 257.96 132.049 259C131.457 260.024 130.649 260.816 129.625 261.376C128.601 261.936 127.465 262.216 126.217 262.216ZM126.217 260.296C127.001 260.296 127.737 260.112 128.425 259.744C129.113 259.376 129.665 258.824 130.081 258.088C130.513 257.352 130.729 256.456 130.729 255.4C130.729 254.344 130.521 253.448 130.105 252.712C129.689 251.976 129.145 251.432 128.473 251.08C127.801 250.712 127.073 250.528 126.289 250.528C125.489 250.528 124.753 250.712 124.081 251.08C123.425 251.432 122.897 251.976 122.497 252.712C122.097 253.448 121.897 254.344 121.897 255.4C121.897 256.472 122.089 257.376 122.473 258.112C122.873 258.848 123.401 259.4 124.057 259.768C124.713 260.12 125.433 260.296 126.217 260.296ZM135.016 255.376C135.016 254.032 135.288 252.856 135.832 251.848C136.376 250.824 137.12 250.032 138.064 249.472C139.024 248.912 140.096 248.632 141.28 248.632C142.304 248.632 143.256 248.872 144.136 249.352C145.016 249.816 145.688 250.432 146.152 251.2V244.24H148.36V262H146.152V259.528C145.72 260.312 145.08 260.96 144.232 261.472C143.384 261.968 142.392 262.216 141.256 262.216C140.088 262.216 139.024 261.928 138.064 261.352C137.12 260.776 136.376 259.968 135.832 258.928C135.288 257.888 135.016 256.704 135.016 255.376ZM146.152 255.4C146.152 254.408 145.952 253.544 145.552 252.808C145.152 252.072 144.608 251.512 143.92 251.128C143.248 250.728 142.504 250.528 141.688 250.528C140.872 250.528 140.128 250.72 139.456 251.104C138.784 251.488 138.248 252.048 137.848 252.784C137.448 253.52 137.248 254.384 137.248 255.376C137.248 256.384 137.448 257.264 137.848 258.016C138.248 258.752 138.784 259.32 139.456 259.72C140.128 260.104 140.872 260.296 141.688 260.296C142.504 260.296 143.248 260.104 143.92 259.72C144.608 259.32 145.152 258.752 145.552 258.016C145.952 257.264 146.152 256.392 146.152 255.4ZM164.051 254.92C164.051 255.336 164.027 255.776 163.979 256.24H153.467C153.547 257.536 153.987 258.552 154.787 259.288C155.603 260.008 156.587 260.368 157.739 260.368C158.683 260.368 159.467 260.152 160.091 259.72C160.731 259.272 161.179 258.68 161.435 257.944H163.787C163.435 259.208 162.731 260.24 161.675 261.04C160.619 261.824 159.307 262.216 157.739 262.216C156.491 262.216 155.371 261.936 154.379 261.376C153.403 260.816 152.635 260.024 152.075 259C151.515 257.96 151.235 256.76 151.235 255.4C151.235 254.04 151.507 252.848 152.051 251.824C152.595 250.8 153.355 250.016 154.331 249.472C155.323 248.912 156.459 248.632 157.739 248.632C158.987 248.632 160.091 248.904 161.051 249.448C162.011 249.992 162.747 250.744 163.259 251.704C163.787 252.648 164.051 253.72 164.051 254.92ZM161.795 254.464C161.795 253.632 161.611 252.92 161.243 252.328C160.875 251.72 160.371 251.264 159.731 250.96C159.107 250.64 158.411 250.48 157.643 250.48C156.539 250.48 155.595 250.832 154.811 251.536C154.043 252.24 153.603 253.216 153.491 254.464H161.795ZM169.118 244.24V262H166.934V244.24H169.118Z" fill="#1B1C37"/>
</svg>
