<svg width="220" height="308" viewBox="0 0 220 308" fill="none" xmlns="http://www.w3.org/2000/svg">
<path d="M220 110C220 170.751 170.751 220 110 220C49.2487 220 0 170.751 0 110C0 49.2487 49.2487 0 110 0C170.751 0 220 49.2487 220 110ZM33 110C33 152.526 67.4741 187 110 187C152.526 187 187 152.526 187 110C187 67.4741 152.526 33 110 33C67.4741 33 33 67.4741 33 110Z" fill="#EDEEFF"/>
<path d="M38.3749 49.8993C31.3941 44.0418 30.4128 33.5216 37.2478 27.4947C48.2377 17.804 61.0965 10.3687 75.0965 5.68439C94.3346 -0.752592 114.978 -1.74417 134.745 2.8193C154.511 7.38276 172.631 17.3235 187.1 31.5425C201.569 45.7614 211.825 63.7047 216.733 83.3886C221.64 103.072 221.009 123.73 214.909 143.078C208.809 162.425 197.477 179.709 182.166 193.018C166.856 206.327 148.163 215.143 128.155 218.491C113.595 220.928 98.7505 220.4 84.4975 217.003C75.6331 214.89 71.5606 205.141 74.9743 196.692C78.388 188.243 88.0151 184.355 96.997 185.894C105.466 187.345 114.157 187.375 122.709 185.944C136.714 183.6 149.799 177.429 160.517 168.113C171.234 158.796 179.166 146.698 183.436 133.154C187.706 119.611 188.148 105.151 184.713 91.372C181.277 77.5933 174.099 65.033 163.97 55.0797C153.841 45.1264 141.158 38.1679 127.321 34.9735C113.485 31.7791 99.0342 32.4732 85.5676 36.9791C77.3454 39.7302 69.6856 43.8368 62.8889 49.094C55.6808 54.6694 45.3556 55.7569 38.3749 49.8993Z" fill="#7579FF"/>
<path d="M92.6901 100.572L83.1141 123H78.0021L87.6501 101.148H75.3381V96.828H92.6901V100.572ZM95.7088 109.536C95.7088 105.384 96.4528 102.132 97.9408 99.78C99.4528 97.428 101.949 96.252 105.429 96.252C108.909 96.252 111.393 97.428 112.881 99.78C114.393 102.132 115.149 105.384 115.149 109.536C115.149 113.712 114.393 116.988 112.881 119.364C111.393 121.74 108.909 122.928 105.429 122.928C101.949 122.928 99.4528 121.74 97.9408 119.364C96.4528 116.988 95.7088 113.712 95.7088 109.536ZM110.181 109.536C110.181 107.76 110.061 106.272 109.821 105.072C109.605 103.848 109.149 102.852 108.453 102.084C107.781 101.316 106.773 100.932 105.429 100.932C104.085 100.932 103.065 101.316 102.369 102.084C101.697 102.852 101.241 103.848 101.001 105.072C100.785 106.272 100.677 107.76 100.677 109.536C100.677 111.36 100.785 112.896 101.001 114.144C101.217 115.368 101.673 116.364 102.369 117.132C103.065 117.876 104.085 118.248 105.429 118.248C106.773 118.248 107.793 117.876 108.489 117.132C109.185 116.364 109.641 115.368 109.857 114.144C110.073 112.896 110.181 111.36 110.181 109.536ZM118.406 103.2C118.406 101.376 118.934 99.948 119.99 98.916C121.07 97.884 122.45 97.368 124.13 97.368C125.81 97.368 127.178 97.884 128.234 98.916C129.314 99.948 129.854 101.376 129.854 103.2C129.854 105.048 129.314 106.488 128.234 107.52C127.178 108.552 125.81 109.068 124.13 109.068C122.45 109.068 121.07 108.552 119.99 107.52C118.934 106.488 118.406 105.048 118.406 103.2ZM141.518 97.8L127.37 123H122.474L136.586 97.8H141.518ZM124.094 100.392C122.774 100.392 122.114 101.328 122.114 103.2C122.114 105.096 122.774 106.044 124.094 106.044C124.742 106.044 125.246 105.816 125.606 105.36C125.966 104.88 126.146 104.16 126.146 103.2C126.146 101.328 125.462 100.392 124.094 100.392ZM134.21 117.564C134.21 115.716 134.738 114.288 135.794 113.28C136.874 112.248 138.254 111.732 139.934 111.732C141.614 111.732 142.97 112.248 144.002 113.28C145.058 114.288 145.586 115.716 145.586 117.564C145.586 119.412 145.058 120.852 144.002 121.884C142.97 122.916 141.614 123.432 139.934 123.432C138.23 123.432 136.85 122.916 135.794 121.884C134.738 120.852 134.21 119.412 134.21 117.564ZM139.898 114.756C138.53 114.756 137.846 115.692 137.846 117.564C137.846 119.46 138.53 120.408 139.898 120.408C141.242 120.408 141.914 119.46 141.914 117.564C141.914 115.692 141.242 114.756 139.898 114.756Z" fill="#5F6073"/>
<path d="M28.5951 253.384C29.2031 253.48 29.7551 253.728 30.2511 254.128C30.7631 254.528 31.1631 255.024 31.4511 255.616C31.7551 256.208 31.9071 256.84 31.9071 257.512C31.9071 258.36 31.6911 259.128 31.2591 259.816C30.8271 260.488 30.1951 261.024 29.3631 261.424C28.5471 261.808 27.5791 262 26.4591 262H20.2191V245.272H26.2191C27.3551 245.272 28.3231 245.464 29.1231 245.848C29.9231 246.216 30.5231 246.72 30.9231 247.36C31.3231 248 31.5231 248.72 31.5231 249.52C31.5231 250.512 31.2511 251.336 30.7071 251.992C30.1791 252.632 29.4751 253.096 28.5951 253.384ZM22.4031 252.496H26.0751C27.0991 252.496 27.8911 252.256 28.4511 251.776C29.0111 251.296 29.2911 250.632 29.2911 249.784C29.2911 248.936 29.0111 248.272 28.4511 247.792C27.8911 247.312 27.0831 247.072 26.0271 247.072H22.4031V252.496ZM26.2671 260.2C27.3551 260.2 28.2031 259.944 28.8111 259.432C29.4191 258.92 29.7231 258.208 29.7231 257.296C29.7231 256.368 29.4031 255.64 28.7631 255.112C28.1231 254.568 27.2671 254.296 26.1951 254.296H22.4031V260.2H26.2671ZM46.6018 248.848V262H44.4178V260.056C44.0018 260.728 43.4178 261.256 42.6658 261.64C41.9298 262.008 41.1138 262.192 40.2178 262.192C39.1938 262.192 38.2738 261.984 37.4578 261.568C36.6418 261.136 35.9938 260.496 35.5138 259.648C35.0498 258.8 34.8178 257.768 34.8178 256.552V248.848H36.9778V256.264C36.9778 257.56 37.3058 258.56 37.9618 259.264C38.6178 259.952 39.5138 260.296 40.6498 260.296C41.8178 260.296 42.7378 259.936 43.4098 259.216C44.0818 258.496 44.4178 257.448 44.4178 256.072V248.848H46.6018ZM54.9454 262.216C53.9374 262.216 53.0334 262.048 52.2334 261.712C51.4334 261.36 50.8014 260.88 50.3374 260.272C49.8734 259.648 49.6174 258.936 49.5694 258.136H51.8254C51.8894 258.792 52.1934 259.328 52.7374 259.744C53.2974 260.16 54.0254 260.368 54.9214 260.368C55.7534 260.368 56.4094 260.184 56.8894 259.816C57.3694 259.448 57.6094 258.984 57.6094 258.424C57.6094 257.848 57.3534 257.424 56.8414 257.152C56.3294 256.864 55.5374 256.584 54.4654 256.312C53.4894 256.056 52.6894 255.8 52.0654 255.544C51.4574 255.272 50.9294 254.88 50.4814 254.368C50.0494 253.84 49.8334 253.152 49.8334 252.304C49.8334 251.632 50.0334 251.016 50.4334 250.456C50.8334 249.896 51.4014 249.456 52.1374 249.136C52.8734 248.8 53.7134 248.632 54.6574 248.632C56.1134 248.632 57.2894 249 58.1854 249.736C59.0814 250.472 59.5614 251.48 59.6254 252.76H57.4414C57.3934 252.072 57.1134 251.52 56.6014 251.104C56.1054 250.688 55.4334 250.48 54.5854 250.48C53.8014 250.48 53.1774 250.648 52.7134 250.984C52.2494 251.32 52.0174 251.76 52.0174 252.304C52.0174 252.736 52.1534 253.096 52.4254 253.384C52.7134 253.656 53.0654 253.88 53.4814 254.056C53.9134 254.216 54.5054 254.4 55.2574 254.608C56.2014 254.864 56.9694 255.12 57.5614 255.376C58.1534 255.616 58.6574 255.984 59.0734 256.48C59.5054 256.976 59.7294 257.624 59.7454 258.424C59.7454 259.144 59.5454 259.792 59.1454 260.368C58.7454 260.944 58.1774 261.4 57.4414 261.736C56.7214 262.056 55.8894 262.216 54.9454 262.216ZM63.9565 246.712C63.5405 246.712 63.1885 246.568 62.9005 246.28C62.6125 245.992 62.4685 245.64 62.4685 245.224C62.4685 244.808 62.6125 244.456 62.9005 244.168C63.1885 243.88 63.5405 243.736 63.9565 243.736C64.3565 243.736 64.6925 243.88 64.9645 244.168C65.2525 244.456 65.3965 244.808 65.3965 245.224C65.3965 245.64 65.2525 245.992 64.9645 246.28C64.6925 246.568 64.3565 246.712 63.9565 246.712ZM65.0125 248.848V262H62.8285V248.848H65.0125ZM75.1427 248.608C76.7427 248.608 78.0387 249.096 79.0307 250.072C80.0227 251.032 80.5187 252.424 80.5187 254.248V262H78.3587V254.56C78.3587 253.248 78.0307 252.248 77.3747 251.56C76.7187 250.856 75.8227 250.504 74.6867 250.504C73.5347 250.504 72.6147 250.864 71.9267 251.584C71.2547 252.304 70.9187 253.352 70.9187 254.728V262H68.7347V248.848H70.9187V250.72C71.3507 250.048 71.9347 249.528 72.6707 249.16C73.4227 248.792 74.2467 248.608 75.1427 248.608ZM96.0863 254.92C96.0863 255.336 96.0623 255.776 96.0143 256.24H85.5023C85.5823 257.536 86.0223 258.552 86.8223 259.288C87.6383 260.008 88.6223 260.368 89.7743 260.368C90.7183 260.368 91.5023 260.152 92.1263 259.72C92.7663 259.272 93.2143 258.68 93.4703 257.944H95.8223C95.4703 259.208 94.7663 260.24 93.7103 261.04C92.6543 261.824 91.3423 262.216 89.7743 262.216C88.5263 262.216 87.4063 261.936 86.4143 261.376C85.4383 260.816 84.6703 260.024 84.1103 259C83.5503 257.96 83.2703 256.76 83.2703 255.4C83.2703 254.04 83.5423 252.848 84.0863 251.824C84.6303 250.8 85.3903 250.016 86.3663 249.472C87.3583 248.912 88.4943 248.632 89.7743 248.632C91.0223 248.632 92.1263 248.904 93.0863 249.448C94.0463 249.992 94.7823 250.744 95.2943 251.704C95.8223 252.648 96.0863 253.72 96.0863 254.92ZM93.8303 254.464C93.8303 253.632 93.6463 252.92 93.2783 252.328C92.9103 251.72 92.4063 251.264 91.7663 250.96C91.1423 250.64 90.4463 250.48 89.6783 250.48C88.5743 250.48 87.6303 250.832 86.8463 251.536C86.0783 252.24 85.6383 253.216 85.5263 254.464H93.8303ZM103.625 262.216C102.617 262.216 101.713 262.048 100.913 261.712C100.113 261.36 99.4811 260.88 99.0171 260.272C98.5531 259.648 98.2971 258.936 98.2491 258.136H100.505C100.569 258.792 100.873 259.328 101.417 259.744C101.977 260.16 102.705 260.368 103.601 260.368C104.433 260.368 105.089 260.184 105.569 259.816C106.049 259.448 106.289 258.984 106.289 258.424C106.289 257.848 106.033 257.424 105.521 257.152C105.009 256.864 104.217 256.584 103.145 256.312C102.169 256.056 101.369 255.8 100.745 255.544C100.137 255.272 99.6091 254.88 99.1611 254.368C98.7291 253.84 98.5131 253.152 98.5131 252.304C98.5131 251.632 98.7131 251.016 99.1131 250.456C99.5131 249.896 100.081 249.456 100.817 249.136C101.553 248.8 102.393 248.632 103.337 248.632C104.793 248.632 105.969 249 106.865 249.736C107.761 250.472 108.241 251.48 108.305 252.76H106.121C106.073 252.072 105.793 251.52 105.281 251.104C104.785 250.688 104.113 250.48 103.265 250.48C102.481 250.48 101.857 250.648 101.393 250.984C100.929 251.32 100.697 251.76 100.697 252.304C100.697 252.736 100.833 253.096 101.105 253.384C101.393 253.656 101.745 253.88 102.161 254.056C102.593 254.216 103.185 254.4 103.937 254.608C104.881 254.864 105.649 255.12 106.241 255.376C106.833 255.616 107.337 255.984 107.753 256.48C108.185 256.976 108.409 257.624 108.425 258.424C108.425 259.144 108.225 259.792 107.825 260.368C107.425 260.944 106.857 261.4 106.121 261.736C105.401 262.056 104.569 262.216 103.625 262.216ZM116.164 262.216C115.156 262.216 114.252 262.048 113.452 261.712C112.652 261.36 112.02 260.88 111.556 260.272C111.092 259.648 110.836 258.936 110.788 258.136H113.044C113.108 258.792 113.412 259.328 113.956 259.744C114.516 260.16 115.244 260.368 116.14 260.368C116.972 260.368 117.628 260.184 118.108 259.816C118.588 259.448 118.828 258.984 118.828 258.424C118.828 257.848 118.572 257.424 118.06 257.152C117.548 256.864 116.756 256.584 115.684 256.312C114.708 256.056 113.908 255.8 113.284 255.544C112.676 255.272 112.148 254.88 111.7 254.368C111.268 253.84 111.052 253.152 111.052 252.304C111.052 251.632 111.252 251.016 111.652 250.456C112.052 249.896 112.62 249.456 113.356 249.136C114.092 248.8 114.932 248.632 115.876 248.632C117.332 248.632 118.508 249 119.404 249.736C120.3 250.472 120.78 251.48 120.844 252.76H118.66C118.612 252.072 118.332 251.52 117.82 251.104C117.324 250.688 116.652 250.48 115.804 250.48C115.02 250.48 114.396 250.648 113.932 250.984C113.468 251.32 113.236 251.76 113.236 252.304C113.236 252.736 113.372 253.096 113.644 253.384C113.932 253.656 114.284 253.88 114.7 254.056C115.132 254.216 115.724 254.4 116.476 254.608C117.42 254.864 118.188 255.12 118.78 255.376C119.372 255.616 119.876 255.984 120.292 256.48C120.724 256.976 120.948 257.624 120.964 258.424C120.964 259.144 120.764 259.792 120.364 260.368C119.964 260.944 119.396 261.4 118.66 261.736C117.94 262.056 117.108 262.216 116.164 262.216ZM147.414 245.392V262H145.23V249.616L139.71 262H138.174L132.63 249.592V262H130.446V245.392H132.798L138.942 259.12L145.086 245.392H147.414ZM156.854 262.216C155.622 262.216 154.502 261.936 153.494 261.376C152.502 260.816 151.718 260.024 151.142 259C150.582 257.96 150.302 256.76 150.302 255.4C150.302 254.056 150.59 252.872 151.166 251.848C151.758 250.808 152.558 250.016 153.566 249.472C154.574 248.912 155.702 248.632 156.95 248.632C158.198 248.632 159.326 248.912 160.334 249.472C161.342 250.016 162.134 250.8 162.71 251.824C163.302 252.848 163.598 254.04 163.598 255.4C163.598 256.76 163.294 257.96 162.686 259C162.094 260.024 161.286 260.816 160.262 261.376C159.238 261.936 158.102 262.216 156.854 262.216ZM156.854 260.296C157.638 260.296 158.374 260.112 159.062 259.744C159.75 259.376 160.302 258.824 160.718 258.088C161.15 257.352 161.366 256.456 161.366 255.4C161.366 254.344 161.158 253.448 160.742 252.712C160.326 251.976 159.782 251.432 159.11 251.08C158.438 250.712 157.71 250.528 156.926 250.528C156.126 250.528 155.39 250.712 154.718 251.08C154.062 251.432 153.534 251.976 153.134 252.712C152.734 253.448 152.534 254.344 152.534 255.4C152.534 256.472 152.726 257.376 153.11 258.112C153.51 258.848 154.038 259.4 154.694 259.768C155.35 260.12 156.07 260.296 156.854 260.296ZM165.653 255.376C165.653 254.032 165.925 252.856 166.469 251.848C167.013 250.824 167.757 250.032 168.701 249.472C169.661 248.912 170.733 248.632 171.917 248.632C172.941 248.632 173.893 248.872 174.773 249.352C175.653 249.816 176.325 250.432 176.789 251.2V244.24H178.997V262H176.789V259.528C176.357 260.312 175.717 260.96 174.869 261.472C174.021 261.968 173.029 262.216 171.893 262.216C170.725 262.216 169.661 261.928 168.701 261.352C167.757 260.776 167.013 259.968 166.469 258.928C165.925 257.888 165.653 256.704 165.653 255.376ZM176.789 255.4C176.789 254.408 176.589 253.544 176.189 252.808C175.789 252.072 175.245 251.512 174.557 251.128C173.885 250.728 173.141 250.528 172.325 250.528C171.509 250.528 170.765 250.72 170.093 251.104C169.421 251.488 168.885 252.048 168.485 252.784C168.085 253.52 167.885 254.384 167.885 255.376C167.885 256.384 168.085 257.264 168.485 258.016C168.885 258.752 169.421 259.32 170.093 259.72C170.765 260.104 171.509 260.296 172.325 260.296C173.141 260.296 173.885 260.104 174.557 259.72C175.245 259.32 175.789 258.752 176.189 258.016C176.589 257.264 176.789 256.392 176.789 255.4ZM194.688 254.92C194.688 255.336 194.664 255.776 194.616 256.24H184.104C184.184 257.536 184.624 258.552 185.424 259.288C186.24 260.008 187.224 260.368 188.376 260.368C189.32 260.368 190.104 260.152 190.728 259.72C191.368 259.272 191.816 258.68 192.072 257.944H194.424C194.072 259.208 193.368 260.24 192.312 261.04C191.256 261.824 189.944 262.216 188.376 262.216C187.128 262.216 186.008 261.936 185.016 261.376C184.04 260.816 183.272 260.024 182.712 259C182.152 257.96 181.872 256.76 181.872 255.4C181.872 254.04 182.144 252.848 182.688 251.824C183.232 250.8 183.992 250.016 184.968 249.472C185.96 248.912 187.096 248.632 188.376 248.632C189.624 248.632 190.728 248.904 191.688 249.448C192.648 249.992 193.384 250.744 193.896 251.704C194.424 252.648 194.688 253.72 194.688 254.92ZM192.432 254.464C192.432 253.632 192.248 252.92 191.88 252.328C191.512 251.72 191.008 251.264 190.368 250.96C189.744 250.64 189.048 250.48 188.28 250.48C187.176 250.48 186.232 250.832 185.448 251.536C184.68 252.24 184.24 253.216 184.128 254.464H192.432ZM199.755 244.24V262H197.571V244.24H199.755ZM64.8718 289.624C64.8718 287.992 65.2398 286.528 65.9758 285.232C66.7118 283.92 67.7118 282.896 68.9758 282.16C70.2558 281.424 71.6718 281.056 73.2238 281.056C75.0478 281.056 76.6398 281.496 77.9998 282.376C79.3598 283.256 80.3518 284.504 80.9758 286.12H78.3598C77.8958 285.112 77.2238 284.336 76.3438 283.792C75.4798 283.248 74.4398 282.976 73.2238 282.976C72.0558 282.976 71.0078 283.248 70.0798 283.792C69.1518 284.336 68.4238 285.112 67.8958 286.12C67.3678 287.112 67.1038 288.28 67.1038 289.624C67.1038 290.952 67.3678 292.12 67.8958 293.128C68.4238 294.12 69.1518 294.888 70.0798 295.432C71.0078 295.976 72.0558 296.248 73.2238 296.248C74.4398 296.248 75.4798 295.984 76.3438 295.456C77.2238 294.912 77.8958 294.136 78.3598 293.128H80.9758C80.3518 294.728 79.3598 295.968 77.9998 296.848C76.6398 297.712 75.0478 298.144 73.2238 298.144C71.6718 298.144 70.2558 297.784 68.9758 297.064C67.7118 296.328 66.7118 295.312 65.9758 294.016C65.2398 292.72 64.8718 291.256 64.8718 289.624ZM83.4109 291.376C83.4109 290.032 83.6829 288.856 84.2269 287.848C84.7709 286.824 85.5149 286.032 86.4589 285.472C87.4189 284.912 88.4829 284.632 89.6509 284.632C90.8029 284.632 91.8029 284.88 92.6509 285.376C93.4989 285.872 94.1309 286.496 94.5469 287.248V284.848H96.7549V298H94.5469V295.552C94.1149 296.32 93.4669 296.96 92.6029 297.472C91.7549 297.968 90.7629 298.216 89.6269 298.216C88.4589 298.216 87.4029 297.928 86.4589 297.352C85.5149 296.776 84.7709 295.968 84.2269 294.928C83.6829 293.888 83.4109 292.704 83.4109 291.376ZM94.5469 291.4C94.5469 290.408 94.3469 289.544 93.9469 288.808C93.5469 288.072 93.0029 287.512 92.3149 287.128C91.6429 286.728 90.8989 286.528 90.0829 286.528C89.2669 286.528 88.5229 286.72 87.8509 287.104C87.1789 287.488 86.6429 288.048 86.2429 288.784C85.8429 289.52 85.6429 290.384 85.6429 291.376C85.6429 292.384 85.8429 293.264 86.2429 294.016C86.6429 294.752 87.1789 295.32 87.8509 295.72C88.5229 296.104 89.2669 296.296 90.0829 296.296C90.8989 296.296 91.6429 296.104 92.3149 295.72C93.0029 295.32 93.5469 294.752 93.9469 294.016C94.3469 293.264 94.5469 292.392 94.5469 291.4ZM106.854 284.608C108.454 284.608 109.75 285.096 110.742 286.072C111.734 287.032 112.23 288.424 112.23 290.248V298H110.07V290.56C110.07 289.248 109.742 288.248 109.086 287.56C108.43 286.856 107.534 286.504 106.398 286.504C105.246 286.504 104.326 286.864 103.638 287.584C102.966 288.304 102.63 289.352 102.63 290.728V298H100.446V284.848H102.63V286.72C103.062 286.048 103.646 285.528 104.382 285.16C105.134 284.792 105.958 284.608 106.854 284.608ZM120.693 295.984L124.773 284.848H127.101L121.941 298H119.397L114.237 284.848H116.589L120.693 295.984ZM128.434 291.376C128.434 290.032 128.706 288.856 129.25 287.848C129.794 286.824 130.538 286.032 131.482 285.472C132.442 284.912 133.506 284.632 134.674 284.632C135.826 284.632 136.826 284.88 137.674 285.376C138.522 285.872 139.154 286.496 139.57 287.248V284.848H141.778V298H139.57V295.552C139.138 296.32 138.49 296.96 137.626 297.472C136.778 297.968 135.786 298.216 134.65 298.216C133.482 298.216 132.426 297.928 131.482 297.352C130.538 296.776 129.794 295.968 129.25 294.928C128.706 293.888 128.434 292.704 128.434 291.376ZM139.57 291.4C139.57 290.408 139.37 289.544 138.97 288.808C138.57 288.072 138.026 287.512 137.338 287.128C136.666 286.728 135.922 286.528 135.106 286.528C134.29 286.528 133.546 286.72 132.874 287.104C132.202 287.488 131.666 288.048 131.266 288.784C130.866 289.52 130.666 290.384 130.666 291.376C130.666 292.384 130.866 293.264 131.266 294.016C131.666 294.752 132.202 295.32 132.874 295.72C133.546 296.104 134.29 296.296 135.106 296.296C135.922 296.296 136.666 296.104 137.338 295.72C138.026 295.32 138.57 294.752 138.97 294.016C139.37 293.264 139.57 292.392 139.57 291.4ZM150.125 298.216C149.117 298.216 148.213 298.048 147.413 297.712C146.613 297.36 145.981 296.88 145.517 296.272C145.053 295.648 144.797 294.936 144.749 294.136H147.005C147.069 294.792 147.373 295.328 147.917 295.744C148.477 296.16 149.205 296.368 150.101 296.368C150.933 296.368 151.589 296.184 152.069 295.816C152.549 295.448 152.789 294.984 152.789 294.424C152.789 293.848 152.533 293.424 152.021 293.152C151.509 292.864 150.717 292.584 149.645 292.312C148.669 292.056 147.869 291.8 147.245 291.544C146.637 291.272 146.109 290.88 145.661 290.368C145.229 289.84 145.013 289.152 145.013 288.304C145.013 287.632 145.213 287.016 145.613 286.456C146.013 285.896 146.581 285.456 147.317 285.136C148.053 284.8 148.893 284.632 149.837 284.632C151.293 284.632 152.469 285 153.365 285.736C154.261 286.472 154.741 287.48 154.805 288.76H152.621C152.573 288.072 152.293 287.52 151.781 287.104C151.285 286.688 150.613 286.48 149.765 286.48C148.981 286.48 148.357 286.648 147.893 286.984C147.429 287.32 147.197 287.76 147.197 288.304C147.197 288.736 147.333 289.096 147.605 289.384C147.893 289.656 148.245 289.88 148.661 290.056C149.093 290.216 149.685 290.4 150.437 290.608C151.381 290.864 152.149 291.12 152.741 291.376C153.333 291.616 153.837 291.984 154.253 292.48C154.685 292.976 154.909 293.624 154.925 294.424C154.925 295.144 154.725 295.792 154.325 296.368C153.925 296.944 153.357 297.4 152.621 297.736C151.901 298.056 151.069 298.216 150.125 298.216Z" fill="#1B1C37"/>
</svg>
