<svg width="220" height="272" viewBox="0 0 220 272" fill="none" xmlns="http://www.w3.org/2000/svg">
<path d="M220 110C220 170.751 170.751 220 110 220C49.2487 220 0 170.751 0 110C0 49.2487 49.2487 0 110 0C170.751 0 220 49.2487 220 110ZM33 110C33 152.526 67.4741 187 110 187C152.526 187 187 152.526 187 110C187 67.4741 152.526 33 110 33C67.4741 33 33 67.4741 33 110Z" fill="#EDEEFF"/>
<path d="M38.3749 49.8993C31.3941 44.0418 30.4128 33.5216 37.2478 27.4947C48.2377 17.804 61.0965 10.3687 75.0965 5.68439C94.3346 -0.752592 114.978 -1.74417 134.745 2.8193C154.511 7.38276 172.631 17.3235 187.1 31.5425C201.569 45.7614 211.825 63.7047 216.733 83.3886C221.64 103.072 221.009 123.73 214.909 143.078C208.809 162.425 197.477 179.709 182.166 193.018C166.856 206.327 148.163 215.143 128.155 218.491C113.595 220.928 98.7505 220.4 84.4975 217.003C75.6331 214.89 71.5606 205.141 74.9743 196.692C78.388 188.243 88.0151 184.355 96.997 185.894C105.466 187.345 114.157 187.375 122.709 185.944C136.714 183.6 149.799 177.429 160.517 168.113C171.234 158.796 179.166 146.698 183.436 133.154C187.706 119.611 188.148 105.151 184.713 91.372C181.277 77.5933 174.099 65.033 163.97 55.0797C153.841 45.1264 141.158 38.1679 127.321 34.9735C113.485 31.7791 99.0342 32.4732 85.5676 36.9791C77.3454 39.7302 69.6856 43.8368 62.8889 49.094C55.6808 54.6694 45.3556 55.7569 38.3749 49.8993Z" fill="#7579FF"/>
<path d="M92.6901 100.572L83.1141 123H78.0021L87.6501 101.148H75.3381V96.828H92.6901V100.572ZM95.7088 109.536C95.7088 105.384 96.4528 102.132 97.9408 99.78C99.4528 97.428 101.949 96.252 105.429 96.252C108.909 96.252 111.393 97.428 112.881 99.78C114.393 102.132 115.149 105.384 115.149 109.536C115.149 113.712 114.393 116.988 112.881 119.364C111.393 121.74 108.909 122.928 105.429 122.928C101.949 122.928 99.4528 121.74 97.9408 119.364C96.4528 116.988 95.7088 113.712 95.7088 109.536ZM110.181 109.536C110.181 107.76 110.061 106.272 109.821 105.072C109.605 103.848 109.149 102.852 108.453 102.084C107.781 101.316 106.773 100.932 105.429 100.932C104.085 100.932 103.065 101.316 102.369 102.084C101.697 102.852 101.241 103.848 101.001 105.072C100.785 106.272 100.677 107.76 100.677 109.536C100.677 111.36 100.785 112.896 101.001 114.144C101.217 115.368 101.673 116.364 102.369 117.132C103.065 117.876 104.085 118.248 105.429 118.248C106.773 118.248 107.793 117.876 108.489 117.132C109.185 116.364 109.641 115.368 109.857 114.144C110.073 112.896 110.181 111.36 110.181 109.536ZM118.406 103.2C118.406 101.376 118.934 99.948 119.99 98.916C121.07 97.884 122.45 97.368 124.13 97.368C125.81 97.368 127.178 97.884 128.234 98.916C129.314 99.948 129.854 101.376 129.854 103.2C129.854 105.048 129.314 106.488 128.234 107.52C127.178 108.552 125.81 109.068 124.13 109.068C122.45 109.068 121.07 108.552 119.99 107.52C118.934 106.488 118.406 105.048 118.406 103.2ZM141.518 97.8L127.37 123H122.474L136.586 97.8H141.518ZM124.094 100.392C122.774 100.392 122.114 101.328 122.114 103.2C122.114 105.096 122.774 106.044 124.094 106.044C124.742 106.044 125.246 105.816 125.606 105.36C125.966 104.88 126.146 104.16 126.146 103.2C126.146 101.328 125.462 100.392 124.094 100.392ZM134.21 117.564C134.21 115.716 134.738 114.288 135.794 113.28C136.874 112.248 138.254 111.732 139.934 111.732C141.614 111.732 142.97 112.248 144.002 113.28C145.058 114.288 145.586 115.716 145.586 117.564C145.586 119.412 145.058 120.852 144.002 121.884C142.97 122.916 141.614 123.432 139.934 123.432C138.23 123.432 136.85 122.916 135.794 121.884C134.738 120.852 134.21 119.412 134.21 117.564ZM139.898 114.756C138.53 114.756 137.846 115.692 137.846 117.564C137.846 119.46 138.53 120.408 139.898 120.408C141.242 120.408 141.914 119.46 141.914 117.564C141.914 115.692 141.242 114.756 139.898 114.756Z" fill="#5F6073"/>
<path d="M22.4037 245.272C24.2277 245.272 25.8037 245.616 27.1317 246.304C28.4757 246.976 29.4997 247.944 30.2037 249.208C30.9237 250.472 31.2837 251.96 31.2837 253.672C31.2837 255.384 30.9237 256.872 30.2037 258.136C29.4997 259.384 28.4757 260.344 27.1317 261.016C25.8037 261.672 24.2277 262 22.4037 262H17.1957V245.272H22.4037ZM22.4037 260.2C24.5637 260.2 26.2117 259.632 27.3477 258.496C28.4837 257.344 29.0517 255.736 29.0517 253.672C29.0517 251.592 28.4757 249.968 27.3237 248.8C26.1877 247.632 24.5477 247.048 22.4037 247.048H19.3797V260.2H22.4037ZM46.1644 254.92C46.1644 255.336 46.1404 255.776 46.0924 256.24H35.5804C35.6604 257.536 36.1004 258.552 36.9004 259.288C37.7164 260.008 38.7004 260.368 39.8524 260.368C40.7964 260.368 41.5804 260.152 42.2044 259.72C42.8444 259.272 43.2924 258.68 43.5484 257.944H45.9004C45.5484 259.208 44.8444 260.24 43.7884 261.04C42.7324 261.824 41.4204 262.216 39.8524 262.216C38.6044 262.216 37.4844 261.936 36.4924 261.376C35.5164 260.816 34.7484 260.024 34.1884 259C33.6284 257.96 33.3484 256.76 33.3484 255.4C33.3484 254.04 33.6204 252.848 34.1644 251.824C34.7084 250.8 35.4684 250.016 36.4444 249.472C37.4364 248.912 38.5724 248.632 39.8524 248.632C41.1004 248.632 42.2044 248.904 43.1644 249.448C44.1244 249.992 44.8604 250.744 45.3724 251.704C45.9004 252.648 46.1644 253.72 46.1644 254.92ZM43.9084 254.464C43.9084 253.632 43.7244 252.92 43.3564 252.328C42.9884 251.72 42.4844 251.264 41.8444 250.96C41.2204 250.64 40.5244 250.48 39.7564 250.48C38.6524 250.48 37.7084 250.832 36.9244 251.536C36.1564 252.24 35.7164 253.216 35.6044 254.464H43.9084ZM53.7032 262.216C52.6952 262.216 51.7912 262.048 50.9912 261.712C50.1912 261.36 49.5592 260.88 49.0952 260.272C48.6312 259.648 48.3752 258.936 48.3272 258.136H50.5832C50.6472 258.792 50.9512 259.328 51.4952 259.744C52.0552 260.16 52.7832 260.368 53.6792 260.368C54.5112 260.368 55.1672 260.184 55.6472 259.816C56.1272 259.448 56.3672 258.984 56.3672 258.424C56.3672 257.848 56.1112 257.424 55.5992 257.152C55.0872 256.864 54.2952 256.584 53.2232 256.312C52.2472 256.056 51.4472 255.8 50.8232 255.544C50.2152 255.272 49.6872 254.88 49.2392 254.368C48.8072 253.84 48.5912 253.152 48.5912 252.304C48.5912 251.632 48.7912 251.016 49.1912 250.456C49.5912 249.896 50.1592 249.456 50.8952 249.136C51.6312 248.8 52.4712 248.632 53.4152 248.632C54.8712 248.632 56.0472 249 56.9432 249.736C57.8392 250.472 58.3192 251.48 58.3832 252.76H56.1992C56.1512 252.072 55.8712 251.52 55.3592 251.104C54.8632 250.688 54.1912 250.48 53.3432 250.48C52.5592 250.48 51.9352 250.648 51.4712 250.984C51.0072 251.32 50.7752 251.76 50.7752 252.304C50.7752 252.736 50.9112 253.096 51.1832 253.384C51.4712 253.656 51.8232 253.88 52.2392 254.056C52.6712 254.216 53.2632 254.4 54.0152 254.608C54.9592 254.864 55.7272 255.12 56.3192 255.376C56.9112 255.616 57.4152 255.984 57.8312 256.48C58.2632 256.976 58.4872 257.624 58.5032 258.424C58.5032 259.144 58.3032 259.792 57.9032 260.368C57.5032 260.944 56.9352 261.4 56.1992 261.736C55.4792 262.056 54.6472 262.216 53.7032 262.216ZM62.7143 246.712C62.2983 246.712 61.9463 246.568 61.6583 246.28C61.3703 245.992 61.2263 245.64 61.2263 245.224C61.2263 244.808 61.3703 244.456 61.6583 244.168C61.9463 243.88 62.2983 243.736 62.7143 243.736C63.1143 243.736 63.4503 243.88 63.7223 244.168C64.0103 244.456 64.1543 244.808 64.1543 245.224C64.1543 245.64 64.0103 245.992 63.7223 246.28C63.4503 246.568 63.1143 246.712 62.7143 246.712ZM63.7703 248.848V262H61.5863V248.848H63.7703ZM73.9005 248.608C75.5005 248.608 76.7965 249.096 77.7885 250.072C78.7805 251.032 79.2765 252.424 79.2765 254.248V262H77.1165V254.56C77.1165 253.248 76.7885 252.248 76.1325 251.56C75.4765 250.856 74.5805 250.504 73.4445 250.504C72.2925 250.504 71.3725 250.864 70.6845 251.584C70.0125 252.304 69.6765 253.352 69.6765 254.728V262H67.4925V248.848H69.6765V250.72C70.1085 250.048 70.6925 249.528 71.4285 249.16C72.1805 248.792 73.0045 248.608 73.9005 248.608ZM88.2681 248.632C89.4041 248.632 90.3961 248.88 91.2441 249.376C92.1081 249.872 92.7481 250.496 93.1641 251.248V248.848H95.3721V262.288C95.3721 263.488 95.1161 264.552 94.6041 265.48C94.0921 266.424 93.3561 267.16 92.3961 267.688C91.4521 268.216 90.3481 268.48 89.0841 268.48C87.3561 268.48 85.9161 268.072 84.7641 267.256C83.6121 266.44 82.9321 265.328 82.7241 263.92H84.8841C85.1241 264.72 85.6201 265.36 86.3721 265.84C87.1241 266.336 88.0281 266.584 89.0841 266.584C90.2841 266.584 91.2601 266.208 92.0121 265.456C92.7801 264.704 93.1641 263.648 93.1641 262.288V259.528C92.7321 260.296 92.0921 260.936 91.2441 261.448C90.3961 261.96 89.4041 262.216 88.2681 262.216C87.1001 262.216 86.0361 261.928 85.0761 261.352C84.1321 260.776 83.3881 259.968 82.8441 258.928C82.3001 257.888 82.0281 256.704 82.0281 255.376C82.0281 254.032 82.3001 252.856 82.8441 251.848C83.3881 250.824 84.1321 250.032 85.0761 249.472C86.0361 248.912 87.1001 248.632 88.2681 248.632ZM93.1641 255.4C93.1641 254.408 92.9641 253.544 92.5641 252.808C92.1641 252.072 91.6201 251.512 90.9321 251.128C90.2601 250.728 89.5161 250.528 88.7001 250.528C87.8841 250.528 87.1401 250.72 86.4681 251.104C85.7961 251.488 85.2601 252.048 84.8601 252.784C84.4601 253.52 84.2601 254.384 84.2601 255.376C84.2601 256.384 84.4601 257.264 84.8601 258.016C85.2601 258.752 85.7961 259.32 86.4681 259.72C87.1401 260.104 87.8841 260.296 88.7001 260.296C89.5161 260.296 90.2601 260.104 90.9321 259.72C91.6201 259.32 92.1641 258.752 92.5641 258.016C92.9641 257.264 93.1641 256.392 93.1641 255.4ZM110.765 262.168C109.661 262.168 108.669 261.976 107.789 261.592C106.925 261.192 106.245 260.648 105.749 259.96C105.253 259.256 104.997 258.448 104.981 257.536H107.309C107.389 258.32 107.709 258.984 108.269 259.528C108.845 260.056 109.677 260.32 110.765 260.32C111.805 260.32 112.621 260.064 113.213 259.552C113.821 259.024 114.125 258.352 114.125 257.536C114.125 256.896 113.949 256.376 113.597 255.976C113.245 255.576 112.805 255.272 112.277 255.064C111.749 254.856 111.037 254.632 110.141 254.392C109.037 254.104 108.149 253.816 107.477 253.528C106.821 253.24 106.253 252.792 105.773 252.184C105.309 251.56 105.077 250.728 105.077 249.688C105.077 248.776 105.309 247.968 105.773 247.264C106.237 246.56 106.885 246.016 107.717 245.632C108.565 245.248 109.533 245.056 110.621 245.056C112.189 245.056 113.469 245.448 114.461 246.232C115.469 247.016 116.037 248.056 116.165 249.352H113.765C113.685 248.712 113.349 248.152 112.757 247.672C112.165 247.176 111.381 246.928 110.405 246.928C109.493 246.928 108.749 247.168 108.173 247.648C107.597 248.112 107.309 248.768 107.309 249.616C107.309 250.224 107.477 250.72 107.813 251.104C108.165 251.488 108.589 251.784 109.085 251.992C109.597 252.184 110.309 252.408 111.221 252.664C112.325 252.968 113.213 253.272 113.885 253.576C114.557 253.864 115.133 254.32 115.613 254.944C116.093 255.552 116.333 256.384 116.333 257.44C116.333 258.256 116.117 259.024 115.685 259.744C115.253 260.464 114.613 261.048 113.765 261.496C112.917 261.944 111.917 262.168 110.765 262.168ZM130.875 248.848L122.955 268.192H120.699L123.291 261.856L117.987 248.848H120.411L124.539 259.504L128.619 248.848H130.875ZM137.727 262.216C136.719 262.216 135.815 262.048 135.015 261.712C134.215 261.36 133.583 260.88 133.119 260.272C132.655 259.648 132.399 258.936 132.351 258.136H134.607C134.671 258.792 134.975 259.328 135.519 259.744C136.079 260.16 136.807 260.368 137.703 260.368C138.535 260.368 139.191 260.184 139.671 259.816C140.151 259.448 140.391 258.984 140.391 258.424C140.391 257.848 140.135 257.424 139.623 257.152C139.111 256.864 138.319 256.584 137.247 256.312C136.271 256.056 135.471 255.8 134.847 255.544C134.239 255.272 133.711 254.88 133.263 254.368C132.831 253.84 132.615 253.152 132.615 252.304C132.615 251.632 132.815 251.016 133.215 250.456C133.615 249.896 134.183 249.456 134.919 249.136C135.655 248.8 136.495 248.632 137.439 248.632C138.895 248.632 140.071 249 140.967 249.736C141.863 250.472 142.343 251.48 142.407 252.76H140.223C140.175 252.072 139.895 251.52 139.383 251.104C138.887 250.688 138.215 250.48 137.367 250.48C136.583 250.48 135.959 250.648 135.495 250.984C135.031 251.32 134.799 251.76 134.799 252.304C134.799 252.736 134.935 253.096 135.207 253.384C135.495 253.656 135.847 253.88 136.263 254.056C136.695 254.216 137.287 254.4 138.039 254.608C138.983 254.864 139.751 255.12 140.343 255.376C140.935 255.616 141.439 255.984 141.855 256.48C142.287 256.976 142.511 257.624 142.527 258.424C142.527 259.144 142.327 259.792 141.927 260.368C141.527 260.944 140.959 261.4 140.223 261.736C139.503 262.056 138.671 262.216 137.727 262.216ZM148.274 250.648V258.4C148.274 259.04 148.41 259.496 148.682 259.768C148.954 260.024 149.426 260.152 150.098 260.152H151.706V262H149.738C148.522 262 147.61 261.72 147.002 261.16C146.394 260.6 146.09 259.68 146.09 258.4V250.648H144.386V248.848H146.09V245.536H148.274V248.848H151.706V250.648H148.274ZM166.352 254.92C166.352 255.336 166.328 255.776 166.28 256.24H155.768C155.848 257.536 156.288 258.552 157.088 259.288C157.904 260.008 158.888 260.368 160.04 260.368C160.984 260.368 161.768 260.152 162.392 259.72C163.032 259.272 163.48 258.68 163.736 257.944H166.088C165.736 259.208 165.032 260.24 163.976 261.04C162.92 261.824 161.608 262.216 160.04 262.216C158.792 262.216 157.672 261.936 156.68 261.376C155.704 260.816 154.936 260.024 154.376 259C153.816 257.96 153.536 256.76 153.536 255.4C153.536 254.04 153.808 252.848 154.352 251.824C154.896 250.8 155.656 250.016 156.632 249.472C157.624 248.912 158.76 248.632 160.04 248.632C161.288 248.632 162.392 248.904 163.352 249.448C164.312 249.992 165.048 250.744 165.56 251.704C166.088 252.648 166.352 253.72 166.352 254.92ZM164.096 254.464C164.096 253.632 163.912 252.92 163.544 252.328C163.176 251.72 162.672 251.264 162.032 250.96C161.408 250.64 160.712 250.48 159.944 250.48C158.84 250.48 157.896 250.832 157.112 251.536C156.344 252.24 155.904 253.216 155.792 254.464H164.096ZM185.051 248.608C186.075 248.608 186.987 248.824 187.787 249.256C188.587 249.672 189.219 250.304 189.683 251.152C190.147 252 190.379 253.032 190.379 254.248V262H188.219V254.56C188.219 253.248 187.891 252.248 187.235 251.56C186.595 250.856 185.723 250.504 184.619 250.504C183.483 250.504 182.579 250.872 181.907 251.608C181.235 252.328 180.899 253.376 180.899 254.752V262H178.739V254.56C178.739 253.248 178.411 252.248 177.755 251.56C177.115 250.856 176.243 250.504 175.139 250.504C174.003 250.504 173.099 250.872 172.427 251.608C171.755 252.328 171.419 253.376 171.419 254.752V262H169.235V248.848H171.419V250.744C171.851 250.056 172.427 249.528 173.147 249.16C173.883 248.792 174.691 248.608 175.571 248.608C176.675 248.608 177.651 248.856 178.499 249.352C179.347 249.848 179.979 250.576 180.395 251.536C180.763 250.608 181.371 249.888 182.219 249.376C183.067 248.864 184.011 248.608 185.051 248.608ZM198.617 262.216C197.609 262.216 196.705 262.048 195.905 261.712C195.105 261.36 194.473 260.88 194.009 260.272C193.545 259.648 193.289 258.936 193.241 258.136H195.497C195.561 258.792 195.865 259.328 196.409 259.744C196.969 260.16 197.697 260.368 198.593 260.368C199.425 260.368 200.081 260.184 200.561 259.816C201.041 259.448 201.281 258.984 201.281 258.424C201.281 257.848 201.025 257.424 200.513 257.152C200.001 256.864 199.209 256.584 198.137 256.312C197.161 256.056 196.361 255.8 195.737 255.544C195.129 255.272 194.601 254.88 194.153 254.368C193.721 253.84 193.505 253.152 193.505 252.304C193.505 251.632 193.705 251.016 194.105 250.456C194.505 249.896 195.073 249.456 195.809 249.136C196.545 248.8 197.385 248.632 198.329 248.632C199.785 248.632 200.961 249 201.857 249.736C202.753 250.472 203.233 251.48 203.297 252.76H201.113C201.065 252.072 200.785 251.52 200.273 251.104C199.777 250.688 199.105 250.48 198.257 250.48C197.473 250.48 196.849 250.648 196.385 250.984C195.921 251.32 195.689 251.76 195.689 252.304C195.689 252.736 195.825 253.096 196.097 253.384C196.385 253.656 196.737 253.88 197.153 254.056C197.585 254.216 198.177 254.4 198.929 254.608C199.873 254.864 200.641 255.12 201.233 255.376C201.825 255.616 202.329 255.984 202.745 256.48C203.177 256.976 203.401 257.624 203.417 258.424C203.417 259.144 203.217 259.792 202.817 260.368C202.417 260.944 201.849 261.4 201.113 261.736C200.393 262.056 199.561 262.216 198.617 262.216Z" fill="#1B1C37"/>
</svg>
