<svg width="220" height="308" viewBox="0 0 220 308" fill="none" xmlns="http://www.w3.org/2000/svg">
<path d="M220 110C220 170.751 170.751 220 110 220C49.2487 220 0 170.751 0 110C0 49.2487 49.2487 0 110 0C170.751 0 220 49.2487 220 110ZM33 110C33 152.526 67.4741 187 110 187C152.526 187 187 152.526 187 110C187 67.4741 152.526 33 110 33C67.4741 33 33 67.4741 33 110Z" fill="#EDEEFF"/>
<path d="M38.3749 49.8993C31.3941 44.0418 30.4129 33.5215 37.2479 27.4945C50.4057 15.8922 66.2126 7.5499 83.3887 3.26745C105.928 -2.35232 129.669 -0.69221 151.207 8.00983C172.745 16.7119 190.976 32.0091 203.285 51.7091C215.595 71.409 221.353 94.5004 219.732 117.674C218.112 140.847 209.197 162.912 194.265 180.707C179.333 198.502 159.151 211.113 136.611 216.733C114.071 222.352 90.331 220.692 68.7928 211.99C52.38 205.359 37.888 194.898 26.473 181.577C20.5433 174.657 22.9792 164.376 30.7073 159.547C38.4353 154.718 48.5086 157.232 54.8706 163.756C62.2751 171.35 71.2114 177.376 81.155 181.393C96.2317 187.485 112.85 188.647 128.628 184.713C144.406 180.779 158.533 171.951 168.985 159.495C179.438 147.038 185.678 131.593 186.812 115.371C187.947 99.1502 183.917 82.9863 175.3 69.1964C166.683 55.4064 153.922 44.6983 138.845 38.6069C123.768 32.5155 107.15 31.3534 91.3721 35.2872C80.9662 37.8817 71.2782 42.6049 62.8889 49.0939C55.6808 54.6693 45.3556 55.7569 38.3749 49.8993Z" fill="#7579FF"/>
<path d="M78.673 109.104C76.273 107.856 75.073 105.924 75.073 103.308C75.073 102.012 75.397 100.836 76.045 99.78C76.717 98.7 77.713 97.848 79.033 97.224C80.377 96.576 82.009 96.252 83.929 96.252C85.849 96.252 87.469 96.576 88.789 97.224C90.133 97.848 91.129 98.7 91.777 99.78C92.449 100.836 92.785 102.012 92.785 103.308C92.785 104.628 92.461 105.792 91.813 106.8C91.165 107.784 90.301 108.552 89.221 109.104C90.541 109.68 91.573 110.52 92.317 111.624C93.061 112.728 93.433 114.036 93.433 115.548C93.433 117.18 93.013 118.608 92.173 119.832C91.357 121.032 90.229 121.956 88.789 122.604C87.349 123.252 85.729 123.576 83.929 123.576C82.129 123.576 80.509 123.252 79.069 122.604C77.653 121.956 76.525 121.032 75.685 119.832C74.869 118.608 74.461 117.18 74.461 115.548C74.461 114.036 74.833 112.728 75.577 111.624C76.321 110.496 77.353 109.656 78.673 109.104ZM87.889 104.028C87.889 102.852 87.529 101.94 86.809 101.292C86.113 100.644 85.153 100.32 83.929 100.32C82.729 100.32 81.769 100.644 81.049 101.292C80.353 101.94 80.005 102.864 80.005 104.064C80.005 105.144 80.365 106.008 81.085 106.656C81.829 107.304 82.777 107.628 83.929 107.628C85.081 107.628 86.029 107.304 86.773 106.656C87.517 105.984 87.889 105.108 87.889 104.028ZM83.929 111.3C82.561 111.3 81.445 111.648 80.581 112.344C79.741 113.04 79.321 114.036 79.321 115.332C79.321 116.532 79.729 117.516 80.545 118.284C81.385 119.028 82.513 119.4 83.929 119.4C85.345 119.4 86.461 119.016 87.277 118.248C88.093 117.48 88.501 116.508 88.501 115.332C88.501 114.06 88.081 113.076 87.241 112.38C86.401 111.66 85.297 111.3 83.929 111.3ZM97.4139 109.536C97.4139 105.384 98.1579 102.132 99.6459 99.78C101.158 97.428 103.654 96.252 107.134 96.252C110.614 96.252 113.098 97.428 114.586 99.78C116.098 102.132 116.854 105.384 116.854 109.536C116.854 113.712 116.098 116.988 114.586 119.364C113.098 121.74 110.614 122.928 107.134 122.928C103.654 122.928 101.158 121.74 99.6459 119.364C98.1579 116.988 97.4139 113.712 97.4139 109.536ZM111.886 109.536C111.886 107.76 111.766 106.272 111.526 105.072C111.31 103.848 110.854 102.852 110.158 102.084C109.486 101.316 108.478 100.932 107.134 100.932C105.79 100.932 104.77 101.316 104.074 102.084C103.402 102.852 102.946 103.848 102.706 105.072C102.49 106.272 102.382 107.76 102.382 109.536C102.382 111.36 102.49 112.896 102.706 114.144C102.922 115.368 103.378 116.364 104.074 117.132C104.77 117.876 105.79 118.248 107.134 118.248C108.478 118.248 109.498 117.876 110.194 117.132C110.89 116.364 111.346 115.368 111.562 114.144C111.778 112.896 111.886 111.36 111.886 109.536ZM120.111 103.2C120.111 101.376 120.639 99.948 121.695 98.916C122.775 97.884 124.155 97.368 125.835 97.368C127.515 97.368 128.883 97.884 129.939 98.916C131.019 99.948 131.559 101.376 131.559 103.2C131.559 105.048 131.019 106.488 129.939 107.52C128.883 108.552 127.515 109.068 125.835 109.068C124.155 109.068 122.775 108.552 121.695 107.52C120.639 106.488 120.111 105.048 120.111 103.2ZM143.223 97.8L129.075 123H124.179L138.291 97.8H143.223ZM125.799 100.392C124.479 100.392 123.819 101.328 123.819 103.2C123.819 105.096 124.479 106.044 125.799 106.044C126.447 106.044 126.951 105.816 127.311 105.36C127.671 104.88 127.851 104.16 127.851 103.2C127.851 101.328 127.167 100.392 125.799 100.392ZM135.915 117.564C135.915 115.716 136.443 114.288 137.499 113.28C138.579 112.248 139.959 111.732 141.639 111.732C143.319 111.732 144.675 112.248 145.707 113.28C146.763 114.288 147.291 115.716 147.291 117.564C147.291 119.412 146.763 120.852 145.707 121.884C144.675 122.916 143.319 123.432 141.639 123.432C139.935 123.432 138.555 122.916 137.499 121.884C136.443 120.852 135.915 119.412 135.915 117.564ZM141.603 114.756C140.235 114.756 139.551 115.692 139.551 117.564C139.551 119.46 140.235 120.408 141.603 120.408C142.947 120.408 143.619 119.46 143.619 117.564C143.619 115.692 142.947 114.756 141.603 114.756Z" fill="#5F6073"/>
<path d="M44.1531 245.272V262H41.9691V245.272H44.1531ZM54.2833 248.608C55.8833 248.608 57.1793 249.096 58.1713 250.072C59.1633 251.032 59.6593 252.424 59.6593 254.248V262H57.4993V254.56C57.4993 253.248 57.1713 252.248 56.5153 251.56C55.8593 250.856 54.9633 250.504 53.8273 250.504C52.6753 250.504 51.7553 250.864 51.0673 251.584C50.3953 252.304 50.0593 253.352 50.0593 254.728V262H47.8753V248.848H50.0593V250.72C50.4913 250.048 51.0753 249.528 51.8113 249.16C52.5633 248.792 53.3873 248.608 54.2833 248.608ZM68.5789 250.648H65.8189V262H63.6349V250.648H61.9309V248.848H63.6349V247.912C63.6349 246.44 64.0109 245.368 64.7629 244.696C65.5309 244.008 66.7549 243.664 68.4349 243.664V245.488C67.4749 245.488 66.7949 245.68 66.3949 246.064C66.0109 246.432 65.8189 247.048 65.8189 247.912V248.848H68.5789V250.648ZM76.8613 262.216C75.6293 262.216 74.5093 261.936 73.5013 261.376C72.5093 260.816 71.7253 260.024 71.1493 259C70.5893 257.96 70.3093 256.76 70.3093 255.4C70.3093 254.056 70.5973 252.872 71.1733 251.848C71.7653 250.808 72.5653 250.016 73.5733 249.472C74.5813 248.912 75.7093 248.632 76.9573 248.632C78.2053 248.632 79.3333 248.912 80.3413 249.472C81.3493 250.016 82.1413 250.8 82.7173 251.824C83.3093 252.848 83.6053 254.04 83.6053 255.4C83.6053 256.76 83.3013 257.96 82.6933 259C82.1013 260.024 81.2933 260.816 80.2693 261.376C79.2453 261.936 78.1093 262.216 76.8613 262.216ZM76.8613 260.296C77.6453 260.296 78.3813 260.112 79.0693 259.744C79.7573 259.376 80.3093 258.824 80.7253 258.088C81.1573 257.352 81.3733 256.456 81.3733 255.4C81.3733 254.344 81.1653 253.448 80.7493 252.712C80.3333 251.976 79.7893 251.432 79.1173 251.08C78.4453 250.712 77.7173 250.528 76.9333 250.528C76.1333 250.528 75.3973 250.712 74.7253 251.08C74.0693 251.432 73.5413 251.976 73.1413 252.712C72.7413 253.448 72.5413 254.344 72.5413 255.4C72.5413 256.472 72.7333 257.376 73.1173 258.112C73.5173 258.848 74.0453 259.4 74.7013 259.768C75.3573 260.12 76.0773 260.296 76.8613 260.296ZM88.6609 250.984C89.0449 250.232 89.5889 249.648 90.2929 249.232C91.0129 248.816 91.8849 248.608 92.9089 248.608V250.864H92.3329C89.8849 250.864 88.6609 252.192 88.6609 254.848V262H86.4769V248.848H88.6609V250.984ZM111.246 248.608C112.27 248.608 113.182 248.824 113.982 249.256C114.782 249.672 115.414 250.304 115.878 251.152C116.342 252 116.574 253.032 116.574 254.248V262H114.414V254.56C114.414 253.248 114.086 252.248 113.43 251.56C112.79 250.856 111.918 250.504 110.814 250.504C109.678 250.504 108.774 250.872 108.102 251.608C107.43 252.328 107.094 253.376 107.094 254.752V262H104.934V254.56C104.934 253.248 104.606 252.248 103.95 251.56C103.31 250.856 102.438 250.504 101.334 250.504C100.198 250.504 99.294 250.872 98.622 251.608C97.95 252.328 97.614 253.376 97.614 254.752V262H95.43V248.848H97.614V250.744C98.046 250.056 98.622 249.528 99.342 249.16C100.078 248.792 100.886 248.608 101.766 248.608C102.87 248.608 103.846 248.856 104.694 249.352C105.542 249.848 106.174 250.576 106.59 251.536C106.958 250.608 107.566 249.888 108.414 249.376C109.262 248.864 110.206 248.608 111.246 248.608ZM119.341 255.376C119.341 254.032 119.613 252.856 120.157 251.848C120.701 250.824 121.445 250.032 122.389 249.472C123.349 248.912 124.413 248.632 125.581 248.632C126.733 248.632 127.733 248.88 128.581 249.376C129.429 249.872 130.061 250.496 130.477 251.248V248.848H132.685V262H130.477V259.552C130.045 260.32 129.397 260.96 128.533 261.472C127.685 261.968 126.693 262.216 125.557 262.216C124.389 262.216 123.333 261.928 122.389 261.352C121.445 260.776 120.701 259.968 120.157 258.928C119.613 257.888 119.341 256.704 119.341 255.376ZM130.477 255.4C130.477 254.408 130.277 253.544 129.877 252.808C129.477 252.072 128.933 251.512 128.245 251.128C127.573 250.728 126.829 250.528 126.013 250.528C125.197 250.528 124.453 250.72 123.781 251.104C123.109 251.488 122.573 252.048 122.173 252.784C121.773 253.52 121.573 254.384 121.573 255.376C121.573 256.384 121.773 257.264 122.173 258.016C122.573 258.752 123.109 259.32 123.781 259.72C124.453 260.104 125.197 260.296 126.013 260.296C126.829 260.296 127.573 260.104 128.245 259.72C128.933 259.32 129.477 258.752 129.877 258.016C130.277 257.264 130.477 256.392 130.477 255.4ZM139.039 250.648V258.4C139.039 259.04 139.175 259.496 139.447 259.768C139.719 260.024 140.191 260.152 140.863 260.152H142.471V262H140.503C139.287 262 138.375 261.72 137.767 261.16C137.159 260.6 136.855 259.68 136.855 258.4V250.648H135.151V248.848H136.855V245.536H139.039V248.848H142.471V250.648H139.039ZM146.246 246.712C145.83 246.712 145.478 246.568 145.19 246.28C144.902 245.992 144.758 245.64 144.758 245.224C144.758 244.808 144.902 244.456 145.19 244.168C145.478 243.88 145.83 243.736 146.246 243.736C146.646 243.736 146.982 243.88 147.254 244.168C147.542 244.456 147.686 244.808 147.686 245.224C147.686 245.64 147.542 245.992 147.254 246.28C146.982 246.568 146.646 246.712 146.246 246.712ZM147.302 248.848V262H145.118V248.848H147.302ZM156.76 262.216C155.528 262.216 154.408 261.936 153.4 261.376C152.408 260.816 151.624 260.024 151.048 259C150.488 257.96 150.208 256.76 150.208 255.4C150.208 254.056 150.496 252.872 151.072 251.848C151.664 250.808 152.464 250.016 153.472 249.472C154.48 248.912 155.608 248.632 156.856 248.632C158.104 248.632 159.232 248.912 160.24 249.472C161.248 250.016 162.04 250.8 162.616 251.824C163.208 252.848 163.504 254.04 163.504 255.4C163.504 256.76 163.2 257.96 162.592 259C162 260.024 161.192 260.816 160.168 261.376C159.144 261.936 158.008 262.216 156.76 262.216ZM156.76 260.296C157.544 260.296 158.28 260.112 158.968 259.744C159.656 259.376 160.208 258.824 160.624 258.088C161.056 257.352 161.272 256.456 161.272 255.4C161.272 254.344 161.064 253.448 160.648 252.712C160.232 251.976 159.688 251.432 159.016 251.08C158.344 250.712 157.616 250.528 156.832 250.528C156.032 250.528 155.296 250.712 154.624 251.08C153.968 251.432 153.44 251.976 153.04 252.712C152.64 253.448 152.44 254.344 152.44 255.4C152.44 256.472 152.632 257.376 153.016 258.112C153.416 258.848 153.944 259.4 154.6 259.768C155.256 260.12 155.976 260.296 156.76 260.296ZM172.783 248.608C174.383 248.608 175.679 249.096 176.671 250.072C177.663 251.032 178.159 252.424 178.159 254.248V262H175.999V254.56C175.999 253.248 175.671 252.248 175.015 251.56C174.359 250.856 173.463 250.504 172.327 250.504C171.175 250.504 170.255 250.864 169.567 251.584C168.895 252.304 168.559 253.352 168.559 254.728V262H166.375V248.848H168.559V250.72C168.991 250.048 169.575 249.528 170.311 249.16C171.063 248.792 171.887 248.608 172.783 248.608ZM48.1891 294.28H40.8931L39.5491 298H37.2451L43.2931 281.368H45.8131L51.8371 298H49.5331L48.1891 294.28ZM47.5651 292.504L44.5411 284.056L41.5171 292.504H47.5651ZM56.657 286.984C57.041 286.232 57.585 285.648 58.289 285.232C59.009 284.816 59.881 284.608 60.905 284.608V286.864H60.329C57.881 286.864 56.657 288.192 56.657 290.848V298H54.473V284.848H56.657V286.984ZM62.6101 291.4C62.6101 290.04 62.8821 288.856 63.4261 287.848C63.9701 286.824 64.7221 286.032 65.6821 285.472C66.6581 284.912 67.7701 284.632 69.0181 284.632C70.6341 284.632 71.9621 285.024 73.0021 285.808C74.0581 286.592 74.7541 287.68 75.0901 289.072H72.7381C72.5141 288.272 72.0741 287.64 71.4181 287.176C70.7781 286.712 69.9781 286.48 69.0181 286.48C67.7701 286.48 66.7621 286.912 65.9941 287.776C65.2261 288.624 64.8421 289.832 64.8421 291.4C64.8421 292.984 65.2261 294.208 65.9941 295.072C66.7621 295.936 67.7701 296.368 69.0181 296.368C69.9781 296.368 70.7781 296.144 71.4181 295.696C72.0581 295.248 72.4981 294.608 72.7381 293.776H75.0901C74.7381 295.12 74.0341 296.2 72.9781 297.016C71.9221 297.816 70.6021 298.216 69.0181 298.216C67.7701 298.216 66.6581 297.936 65.6821 297.376C64.7221 296.816 63.9701 296.024 63.4261 295C62.8821 293.976 62.6101 292.776 62.6101 291.4ZM84.5323 284.608C85.5243 284.608 86.4203 284.824 87.2203 285.256C88.0203 285.672 88.6443 286.304 89.0923 287.152C89.5563 288 89.7883 289.032 89.7883 290.248V298H87.6283V290.56C87.6283 289.248 87.3003 288.248 86.6443 287.56C85.9883 286.856 85.0923 286.504 83.9563 286.504C82.8043 286.504 81.8843 286.864 81.1963 287.584C80.5243 288.304 80.1883 289.352 80.1883 290.728V298H78.0043V280.24H80.1883V286.72C80.6203 286.048 81.2123 285.528 81.9643 285.16C82.7323 284.792 83.5883 284.608 84.5323 284.608ZM94.4838 282.712C94.0678 282.712 93.7158 282.568 93.4278 282.28C93.1398 281.992 92.9958 281.64 92.9958 281.224C92.9958 280.808 93.1398 280.456 93.4278 280.168C93.7158 279.88 94.0678 279.736 94.4838 279.736C94.8838 279.736 95.2198 279.88 95.4918 280.168C95.7798 280.456 95.9238 280.808 95.9238 281.224C95.9238 281.64 95.7798 281.992 95.4918 282.28C95.2198 282.568 94.8838 282.712 94.4838 282.712ZM95.5398 284.848V298H93.3558V284.848H95.5398ZM101.926 286.648V294.4C101.926 295.04 102.062 295.496 102.334 295.768C102.606 296.024 103.078 296.152 103.75 296.152H105.358V298H103.39C102.174 298 101.262 297.72 100.654 297.16C100.046 296.6 99.7421 295.68 99.7421 294.4V286.648H98.0381V284.848H99.7421V281.536H101.926V284.848H105.358V286.648H101.926ZM120.004 290.92C120.004 291.336 119.98 291.776 119.932 292.24H109.42C109.5 293.536 109.94 294.552 110.74 295.288C111.556 296.008 112.54 296.368 113.692 296.368C114.636 296.368 115.42 296.152 116.044 295.72C116.684 295.272 117.132 294.68 117.388 293.944H119.74C119.388 295.208 118.684 296.24 117.628 297.04C116.572 297.824 115.26 298.216 113.692 298.216C112.444 298.216 111.324 297.936 110.332 297.376C109.356 296.816 108.588 296.024 108.028 295C107.468 293.96 107.188 292.76 107.188 291.4C107.188 290.04 107.46 288.848 108.004 287.824C108.548 286.8 109.308 286.016 110.284 285.472C111.276 284.912 112.412 284.632 113.692 284.632C114.94 284.632 116.044 284.904 117.004 285.448C117.964 285.992 118.7 286.744 119.212 287.704C119.74 288.648 120.004 289.72 120.004 290.92ZM117.748 290.464C117.748 289.632 117.564 288.92 117.196 288.328C116.828 287.72 116.324 287.264 115.684 286.96C115.06 286.64 114.364 286.48 113.596 286.48C112.492 286.48 111.548 286.832 110.764 287.536C109.996 288.24 109.556 289.216 109.444 290.464H117.748ZM122.071 291.4C122.071 290.04 122.343 288.856 122.887 287.848C123.431 286.824 124.183 286.032 125.143 285.472C126.119 284.912 127.231 284.632 128.479 284.632C130.095 284.632 131.423 285.024 132.463 285.808C133.519 286.592 134.215 287.68 134.551 289.072H132.199C131.975 288.272 131.535 287.64 130.879 287.176C130.239 286.712 129.439 286.48 128.479 286.48C127.231 286.48 126.223 286.912 125.455 287.776C124.687 288.624 124.303 289.832 124.303 291.4C124.303 292.984 124.687 294.208 125.455 295.072C126.223 295.936 127.231 296.368 128.479 296.368C129.439 296.368 130.239 296.144 130.879 295.696C131.519 295.248 131.959 294.608 132.199 293.776H134.551C134.199 295.12 133.495 296.2 132.439 297.016C131.383 297.816 130.063 298.216 128.479 298.216C127.231 298.216 126.119 297.936 125.143 297.376C124.183 296.816 123.431 296.024 122.887 295C122.343 293.976 122.071 292.776 122.071 291.4ZM140.129 286.648V294.4C140.129 295.04 140.265 295.496 140.537 295.768C140.809 296.024 141.281 296.152 141.953 296.152H143.561V298H141.593C140.377 298 139.465 297.72 138.857 297.16C138.249 296.6 137.945 295.68 137.945 294.4V286.648H136.241V284.848H137.945V281.536H140.129V284.848H143.561V286.648H140.129ZM157.871 284.848V298H155.687V296.056C155.271 296.728 154.687 297.256 153.935 297.64C153.199 298.008 152.383 298.192 151.487 298.192C150.463 298.192 149.543 297.984 148.727 297.568C147.911 297.136 147.263 296.496 146.783 295.648C146.319 294.8 146.087 293.768 146.087 292.552V284.848H148.247V292.264C148.247 293.56 148.575 294.56 149.231 295.264C149.887 295.952 150.783 296.296 151.919 296.296C153.087 296.296 154.007 295.936 154.679 295.216C155.351 294.496 155.687 293.448 155.687 292.072V284.848H157.871ZM163.743 286.984C164.127 286.232 164.671 285.648 165.375 285.232C166.095 284.816 166.967 284.608 167.991 284.608V286.864H167.415C164.967 286.864 163.743 288.192 163.743 290.848V298H161.559V284.848H163.743V286.984ZM182.512 290.92C182.512 291.336 182.488 291.776 182.44 292.24H171.928C172.008 293.536 172.448 294.552 173.248 295.288C174.064 296.008 175.048 296.368 176.2 296.368C177.144 296.368 177.928 296.152 178.552 295.72C179.192 295.272 179.64 294.68 179.896 293.944H182.248C181.896 295.208 181.192 296.24 180.136 297.04C179.08 297.824 177.768 298.216 176.2 298.216C174.952 298.216 173.832 297.936 172.84 297.376C171.864 296.816 171.096 296.024 170.536 295C169.976 293.96 169.696 292.76 169.696 291.4C169.696 290.04 169.968 288.848 170.512 287.824C171.056 286.8 171.816 286.016 172.792 285.472C173.784 284.912 174.92 284.632 176.2 284.632C177.448 284.632 178.552 284.904 179.512 285.448C180.472 285.992 181.208 286.744 181.72 287.704C182.248 288.648 182.512 289.72 182.512 290.92ZM180.256 290.464C180.256 289.632 180.072 288.92 179.704 288.328C179.336 287.72 178.832 287.264 178.192 286.96C177.568 286.64 176.872 286.48 176.104 286.48C175 286.48 174.056 286.832 173.272 287.536C172.504 288.24 172.064 289.216 171.952 290.464H180.256Z" fill="#1B1C37"/>
</svg>
