<svg width="220" height="272" viewBox="0 0 220 272" fill="none" xmlns="http://www.w3.org/2000/svg">
<path d="M220 110C220 170.751 170.751 220 110 220C49.2487 220 0 170.751 0 110C0 49.2487 49.2487 0 110 0C170.751 0 220 49.2487 220 110ZM33 110C33 152.526 67.4741 187 110 187C152.526 187 187 152.526 187 110C187 67.4741 152.526 33 110 33C67.4741 33 33 67.4741 33 110Z" fill="#EDEEFF"/>
<path d="M38.3749 49.8993C31.3941 44.0418 30.4129 33.5215 37.2479 27.4945C50.4057 15.8922 66.2126 7.5499 83.3887 3.26745C105.928 -2.35232 129.669 -0.69221 151.207 8.00983C172.745 16.7119 190.976 32.0091 203.285 51.7091C215.595 71.409 221.353 94.5004 219.732 117.674C218.112 140.847 209.197 162.912 194.265 180.707C179.333 198.502 159.151 211.113 136.611 216.733C114.071 222.352 90.331 220.692 68.7928 211.99C52.38 205.359 37.888 194.898 26.473 181.577C20.5433 174.657 22.9792 164.376 30.7073 159.547C38.4353 154.718 48.5086 157.232 54.8706 163.756C62.2751 171.35 71.2114 177.376 81.155 181.393C96.2317 187.485 112.85 188.647 128.628 184.713C144.406 180.779 158.533 171.951 168.985 159.495C179.438 147.038 185.678 131.593 186.812 115.371C187.947 99.1502 183.917 82.9863 175.3 69.1964C166.683 55.4064 153.922 44.6983 138.845 38.6069C123.768 32.5155 107.15 31.3534 91.3721 35.2872C80.9662 37.8817 71.2782 42.6049 62.8889 49.0939C55.6808 54.6693 45.3556 55.7569 38.3749 49.8993Z" fill="#7579FF"/>
<path d="M92.6901 100.572L83.1141 123H78.0021L87.6501 101.148H75.3381V96.828H92.6901V100.572ZM95.7088 109.536C95.7088 105.384 96.4528 102.132 97.9408 99.78C99.4528 97.428 101.949 96.252 105.429 96.252C108.909 96.252 111.393 97.428 112.881 99.78C114.393 102.132 115.149 105.384 115.149 109.536C115.149 113.712 114.393 116.988 112.881 119.364C111.393 121.74 108.909 122.928 105.429 122.928C101.949 122.928 99.4528 121.74 97.9408 119.364C96.4528 116.988 95.7088 113.712 95.7088 109.536ZM110.181 109.536C110.181 107.76 110.061 106.272 109.821 105.072C109.605 103.848 109.149 102.852 108.453 102.084C107.781 101.316 106.773 100.932 105.429 100.932C104.085 100.932 103.065 101.316 102.369 102.084C101.697 102.852 101.241 103.848 101.001 105.072C100.785 106.272 100.677 107.76 100.677 109.536C100.677 111.36 100.785 112.896 101.001 114.144C101.217 115.368 101.673 116.364 102.369 117.132C103.065 117.876 104.085 118.248 105.429 118.248C106.773 118.248 107.793 117.876 108.489 117.132C109.185 116.364 109.641 115.368 109.857 114.144C110.073 112.896 110.181 111.36 110.181 109.536ZM118.406 103.2C118.406 101.376 118.934 99.948 119.99 98.916C121.07 97.884 122.45 97.368 124.13 97.368C125.81 97.368 127.178 97.884 128.234 98.916C129.314 99.948 129.854 101.376 129.854 103.2C129.854 105.048 129.314 106.488 128.234 107.52C127.178 108.552 125.81 109.068 124.13 109.068C122.45 109.068 121.07 108.552 119.99 107.52C118.934 106.488 118.406 105.048 118.406 103.2ZM141.518 97.8L127.37 123H122.474L136.586 97.8H141.518ZM124.094 100.392C122.774 100.392 122.114 101.328 122.114 103.2C122.114 105.096 122.774 106.044 124.094 106.044C124.742 106.044 125.246 105.816 125.606 105.36C125.966 104.88 126.146 104.16 126.146 103.2C126.146 101.328 125.462 100.392 124.094 100.392ZM134.21 117.564C134.21 115.716 134.738 114.288 135.794 113.28C136.874 112.248 138.254 111.732 139.934 111.732C141.614 111.732 142.97 112.248 144.002 113.28C145.058 114.288 145.586 115.716 145.586 117.564C145.586 119.412 145.058 120.852 144.002 121.884C142.97 122.916 141.614 123.432 139.934 123.432C138.23 123.432 136.85 122.916 135.794 121.884C134.738 120.852 134.21 119.412 134.21 117.564ZM139.898 114.756C138.53 114.756 137.846 115.692 137.846 117.564C137.846 119.46 138.53 120.408 139.898 120.408C141.242 120.408 141.914 119.46 141.914 117.564C141.914 115.692 141.242 114.756 139.898 114.756Z" fill="#5F6073"/>
<path d="M53.4031 250.168C53.4031 251.56 52.9231 252.72 51.9631 253.648C51.0191 254.56 49.5711 255.016 47.6191 255.016H44.4031V262H42.2191V245.272H47.6191C49.5071 245.272 50.9391 245.728 51.9151 246.64C52.9071 247.552 53.4031 248.728 53.4031 250.168ZM47.6191 253.216C48.8351 253.216 49.7311 252.952 50.3071 252.424C50.8831 251.896 51.1711 251.144 51.1711 250.168C51.1711 248.104 49.9871 247.072 47.6191 247.072H44.4031V253.216H47.6191ZM58.3015 250.984C58.6855 250.232 59.2295 249.648 59.9335 249.232C60.6535 248.816 61.5255 248.608 62.5495 248.608V250.864H61.9735C59.5255 250.864 58.3015 252.192 58.3015 254.848V262H56.1175V248.848H58.3015V250.984ZM70.8067 262.216C69.5747 262.216 68.4547 261.936 67.4467 261.376C66.4547 260.816 65.6707 260.024 65.0947 259C64.5347 257.96 64.2547 256.76 64.2547 255.4C64.2547 254.056 64.5427 252.872 65.1187 251.848C65.7107 250.808 66.5107 250.016 67.5187 249.472C68.5267 248.912 69.6547 248.632 70.9027 248.632C72.1507 248.632 73.2787 248.912 74.2867 249.472C75.2947 250.016 76.0867 250.8 76.6627 251.824C77.2547 252.848 77.5507 254.04 77.5507 255.4C77.5507 256.76 77.2467 257.96 76.6387 259C76.0467 260.024 75.2387 260.816 74.2147 261.376C73.1907 261.936 72.0547 262.216 70.8067 262.216ZM70.8067 260.296C71.5907 260.296 72.3267 260.112 73.0147 259.744C73.7027 259.376 74.2547 258.824 74.6707 258.088C75.1027 257.352 75.3187 256.456 75.3187 255.4C75.3187 254.344 75.1107 253.448 74.6947 252.712C74.2787 251.976 73.7347 251.432 73.0627 251.08C72.3907 250.712 71.6627 250.528 70.8787 250.528C70.0787 250.528 69.3427 250.712 68.6707 251.08C68.0147 251.432 67.4867 251.976 67.0867 252.712C66.6867 253.448 66.4867 254.344 66.4867 255.4C66.4867 256.472 66.6787 257.376 67.0627 258.112C67.4627 258.848 67.9907 259.4 68.6467 259.768C69.3027 260.12 70.0227 260.296 70.8067 260.296ZM83.0862 250.648V258.4C83.0862 259.04 83.2222 259.496 83.4942 259.768C83.7662 260.024 84.2382 260.152 84.9102 260.152H86.5182V262H84.5502C83.3342 262 82.4222 261.72 81.8142 261.16C81.2062 260.6 80.9022 259.68 80.9022 258.4V250.648H79.1982V248.848H80.9022V245.536H83.0862V248.848H86.5182V250.648H83.0862ZM94.9004 262.216C93.6684 262.216 92.5484 261.936 91.5404 261.376C90.5484 260.816 89.7644 260.024 89.1884 259C88.6284 257.96 88.3484 256.76 88.3484 255.4C88.3484 254.056 88.6364 252.872 89.2124 251.848C89.8044 250.808 90.6044 250.016 91.6124 249.472C92.6204 248.912 93.7484 248.632 94.9964 248.632C96.2444 248.632 97.3724 248.912 98.3804 249.472C99.3884 250.016 100.18 250.8 100.756 251.824C101.348 252.848 101.644 254.04 101.644 255.4C101.644 256.76 101.34 257.96 100.732 259C100.14 260.024 99.3324 260.816 98.3084 261.376C97.2844 261.936 96.1484 262.216 94.9004 262.216ZM94.9004 260.296C95.6844 260.296 96.4204 260.112 97.1084 259.744C97.7964 259.376 98.3484 258.824 98.7644 258.088C99.1964 257.352 99.4124 256.456 99.4124 255.4C99.4124 254.344 99.2044 253.448 98.7884 252.712C98.3724 251.976 97.8284 251.432 97.1564 251.08C96.4844 250.712 95.7564 250.528 94.9724 250.528C94.1724 250.528 93.4364 250.712 92.7644 251.08C92.1084 251.432 91.5804 251.976 91.1804 252.712C90.7804 253.448 90.5804 254.344 90.5804 255.4C90.5804 256.472 90.7724 257.376 91.1564 258.112C91.5564 258.848 92.0844 259.4 92.7404 259.768C93.3964 260.12 94.1164 260.296 94.9004 260.296ZM107.18 250.648V258.4C107.18 259.04 107.316 259.496 107.588 259.768C107.86 260.024 108.332 260.152 109.004 260.152H110.612V262H108.644C107.428 262 106.516 261.72 105.908 261.16C105.3 260.6 104.996 259.68 104.996 258.4V250.648H103.292V248.848H104.996V245.536H107.18V248.848H110.612V250.648H107.18ZM124.586 248.848L116.666 268.192H114.41L117.002 261.856L111.698 248.848H114.122L118.25 259.504L122.33 248.848H124.586ZM128.966 251.272C129.398 250.52 130.038 249.896 130.886 249.4C131.75 248.888 132.75 248.632 133.886 248.632C135.054 248.632 136.11 248.912 137.054 249.472C138.014 250.032 138.766 250.824 139.31 251.848C139.854 252.856 140.126 254.032 140.126 255.376C140.126 256.704 139.854 257.888 139.31 258.928C138.766 259.968 138.014 260.776 137.054 261.352C136.11 261.928 135.054 262.216 133.886 262.216C132.766 262.216 131.774 261.968 130.91 261.472C130.062 260.96 129.414 260.328 128.966 259.576V268.24H126.782V248.848H128.966V251.272ZM137.894 255.376C137.894 254.384 137.694 253.52 137.294 252.784C136.894 252.048 136.35 251.488 135.662 251.104C134.99 250.72 134.246 250.528 133.43 250.528C132.63 250.528 131.886 250.728 131.198 251.128C130.526 251.512 129.982 252.08 129.566 252.832C129.166 253.568 128.966 254.424 128.966 255.4C128.966 256.392 129.166 257.264 129.566 258.016C129.982 258.752 130.526 259.32 131.198 259.72C131.886 260.104 132.63 260.296 133.43 260.296C134.246 260.296 134.99 260.104 135.662 259.72C136.35 259.32 136.894 258.752 137.294 258.016C137.694 257.264 137.894 256.384 137.894 255.376ZM144.128 246.712C143.712 246.712 143.36 246.568 143.072 246.28C142.784 245.992 142.64 245.64 142.64 245.224C142.64 244.808 142.784 244.456 143.072 244.168C143.36 243.88 143.712 243.736 144.128 243.736C144.528 243.736 144.864 243.88 145.136 244.168C145.424 244.456 145.568 244.808 145.568 245.224C145.568 245.64 145.424 245.992 145.136 246.28C144.864 246.568 144.528 246.712 144.128 246.712ZM145.184 248.848V262H143V248.848H145.184ZM155.315 248.608C156.915 248.608 158.211 249.096 159.203 250.072C160.195 251.032 160.691 252.424 160.691 254.248V262H158.531V254.56C158.531 253.248 158.203 252.248 157.547 251.56C156.891 250.856 155.995 250.504 154.859 250.504C153.707 250.504 152.787 250.864 152.099 251.584C151.427 252.304 151.091 253.352 151.091 254.728V262H148.907V248.848H151.091V250.72C151.523 250.048 152.107 249.528 152.843 249.16C153.595 248.792 154.419 248.608 155.315 248.608ZM169.682 248.632C170.818 248.632 171.81 248.88 172.658 249.376C173.522 249.872 174.162 250.496 174.578 251.248V248.848H176.786V262.288C176.786 263.488 176.53 264.552 176.018 265.48C175.506 266.424 174.77 267.16 173.81 267.688C172.866 268.216 171.762 268.48 170.498 268.48C168.77 268.48 167.33 268.072 166.178 267.256C165.026 266.44 164.346 265.328 164.138 263.92H166.298C166.538 264.72 167.034 265.36 167.786 265.84C168.538 266.336 169.442 266.584 170.498 266.584C171.698 266.584 172.674 266.208 173.426 265.456C174.194 264.704 174.578 263.648 174.578 262.288V259.528C174.146 260.296 173.506 260.936 172.658 261.448C171.81 261.96 170.818 262.216 169.682 262.216C168.514 262.216 167.45 261.928 166.49 261.352C165.546 260.776 164.802 259.968 164.258 258.928C163.714 257.888 163.442 256.704 163.442 255.376C163.442 254.032 163.714 252.856 164.258 251.848C164.802 250.824 165.546 250.032 166.49 249.472C167.45 248.912 168.514 248.632 169.682 248.632ZM174.578 255.4C174.578 254.408 174.378 253.544 173.978 252.808C173.578 252.072 173.034 251.512 172.346 251.128C171.674 250.728 170.93 250.528 170.114 250.528C169.298 250.528 168.554 250.72 167.882 251.104C167.21 251.488 166.674 252.048 166.274 252.784C165.874 253.52 165.674 254.384 165.674 255.376C165.674 256.384 165.874 257.264 166.274 258.016C166.674 258.752 167.21 259.32 167.882 259.72C168.554 260.104 169.298 260.296 170.114 260.296C170.93 260.296 171.674 260.104 172.346 259.72C173.034 259.32 173.578 258.752 173.978 258.016C174.378 257.264 174.578 256.392 174.578 255.4Z" fill="#1B1C37"/>
</svg>
