<svg width="220" height="272" viewBox="0 0 220 272" fill="none" xmlns="http://www.w3.org/2000/svg">
<path d="M220 110C220 170.751 170.751 220 110 220C49.2487 220 0 170.751 0 110C0 49.2487 49.2487 0 110 0C170.751 0 220 49.2487 220 110ZM33 110C33 152.526 67.4741 187 110 187C152.526 187 187 152.526 187 110C187 67.4741 152.526 33 110 33C67.4741 33 33 67.4741 33 110Z" fill="#EDEEFF"/>
<path d="M38.3749 49.8993C31.3941 44.0418 30.4129 33.5215 37.2479 27.4945C50.4057 15.8922 66.2126 7.5499 83.3887 3.26745C105.928 -2.35232 129.669 -0.69221 151.207 8.00983C172.745 16.7119 190.976 32.0091 203.285 51.7091C215.595 71.409 221.353 94.5004 219.732 117.674C218.112 140.847 209.197 162.912 194.265 180.707C179.333 198.502 159.151 211.113 136.611 216.733C114.071 222.352 90.331 220.692 68.7928 211.99C52.38 205.359 37.888 194.898 26.473 181.577C20.5433 174.657 22.9792 164.376 30.7073 159.547C38.4353 154.718 48.5086 157.232 54.8706 163.756C62.2751 171.35 71.2114 177.376 81.155 181.393C96.2317 187.485 112.85 188.647 128.628 184.713C144.406 180.779 158.533 171.951 168.985 159.495C179.438 147.038 185.678 131.593 186.812 115.371C187.947 99.1502 183.917 82.9863 175.3 69.1964C166.683 55.4064 153.922 44.6983 138.845 38.6069C123.768 32.5155 107.15 31.3534 91.3721 35.2872C80.9662 37.8817 71.2782 42.6049 62.8889 49.0939C55.6808 54.6693 45.3556 55.7569 38.3749 49.8993Z" fill="#7579FF"/>
<path d="M78.673 109.104C76.273 107.856 75.073 105.924 75.073 103.308C75.073 102.012 75.397 100.836 76.045 99.78C76.717 98.7 77.713 97.848 79.033 97.224C80.377 96.576 82.009 96.252 83.929 96.252C85.849 96.252 87.469 96.576 88.789 97.224C90.133 97.848 91.129 98.7 91.777 99.78C92.449 100.836 92.785 102.012 92.785 103.308C92.785 104.628 92.461 105.792 91.813 106.8C91.165 107.784 90.301 108.552 89.221 109.104C90.541 109.68 91.573 110.52 92.317 111.624C93.061 112.728 93.433 114.036 93.433 115.548C93.433 117.18 93.013 118.608 92.173 119.832C91.357 121.032 90.229 121.956 88.789 122.604C87.349 123.252 85.729 123.576 83.929 123.576C82.129 123.576 80.509 123.252 79.069 122.604C77.653 121.956 76.525 121.032 75.685 119.832C74.869 118.608 74.461 117.18 74.461 115.548C74.461 114.036 74.833 112.728 75.577 111.624C76.321 110.496 77.353 109.656 78.673 109.104ZM87.889 104.028C87.889 102.852 87.529 101.94 86.809 101.292C86.113 100.644 85.153 100.32 83.929 100.32C82.729 100.32 81.769 100.644 81.049 101.292C80.353 101.94 80.005 102.864 80.005 104.064C80.005 105.144 80.365 106.008 81.085 106.656C81.829 107.304 82.777 107.628 83.929 107.628C85.081 107.628 86.029 107.304 86.773 106.656C87.517 105.984 87.889 105.108 87.889 104.028ZM83.929 111.3C82.561 111.3 81.445 111.648 80.581 112.344C79.741 113.04 79.321 114.036 79.321 115.332C79.321 116.532 79.729 117.516 80.545 118.284C81.385 119.028 82.513 119.4 83.929 119.4C85.345 119.4 86.461 119.016 87.277 118.248C88.093 117.48 88.501 116.508 88.501 115.332C88.501 114.06 88.081 113.076 87.241 112.38C86.401 111.66 85.297 111.3 83.929 111.3ZM97.4139 109.536C97.4139 105.384 98.1579 102.132 99.6459 99.78C101.158 97.428 103.654 96.252 107.134 96.252C110.614 96.252 113.098 97.428 114.586 99.78C116.098 102.132 116.854 105.384 116.854 109.536C116.854 113.712 116.098 116.988 114.586 119.364C113.098 121.74 110.614 122.928 107.134 122.928C103.654 122.928 101.158 121.74 99.6459 119.364C98.1579 116.988 97.4139 113.712 97.4139 109.536ZM111.886 109.536C111.886 107.76 111.766 106.272 111.526 105.072C111.31 103.848 110.854 102.852 110.158 102.084C109.486 101.316 108.478 100.932 107.134 100.932C105.79 100.932 104.77 101.316 104.074 102.084C103.402 102.852 102.946 103.848 102.706 105.072C102.49 106.272 102.382 107.76 102.382 109.536C102.382 111.36 102.49 112.896 102.706 114.144C102.922 115.368 103.378 116.364 104.074 117.132C104.77 117.876 105.79 118.248 107.134 118.248C108.478 118.248 109.498 117.876 110.194 117.132C110.89 116.364 111.346 115.368 111.562 114.144C111.778 112.896 111.886 111.36 111.886 109.536ZM120.111 103.2C120.111 101.376 120.639 99.948 121.695 98.916C122.775 97.884 124.155 97.368 125.835 97.368C127.515 97.368 128.883 97.884 129.939 98.916C131.019 99.948 131.559 101.376 131.559 103.2C131.559 105.048 131.019 106.488 129.939 107.52C128.883 108.552 127.515 109.068 125.835 109.068C124.155 109.068 122.775 108.552 121.695 107.52C120.639 106.488 120.111 105.048 120.111 103.2ZM143.223 97.8L129.075 123H124.179L138.291 97.8H143.223ZM125.799 100.392C124.479 100.392 123.819 101.328 123.819 103.2C123.819 105.096 124.479 106.044 125.799 106.044C126.447 106.044 126.951 105.816 127.311 105.36C127.671 104.88 127.851 104.16 127.851 103.2C127.851 101.328 127.167 100.392 125.799 100.392ZM135.915 117.564C135.915 115.716 136.443 114.288 137.499 113.28C138.579 112.248 139.959 111.732 141.639 111.732C143.319 111.732 144.675 112.248 145.707 113.28C146.763 114.288 147.291 115.716 147.291 117.564C147.291 119.412 146.763 120.852 145.707 121.884C144.675 122.916 143.319 123.432 141.639 123.432C139.935 123.432 138.555 122.916 137.499 121.884C136.443 120.852 135.915 119.412 135.915 117.564ZM141.603 114.756C140.235 114.756 139.551 115.692 139.551 117.564C139.551 119.46 140.235 120.408 141.603 120.408C142.947 120.408 143.619 119.46 143.619 117.564C143.619 115.692 142.947 114.756 141.603 114.756Z" fill="#5F6073"/>
<path d="M59.3004 245.272V255.856C59.3004 257.344 59.6604 258.448 60.3804 259.168C61.1164 259.888 62.1324 260.248 63.4284 260.248C64.7084 260.248 65.7084 259.888 66.4284 259.168C67.1644 258.448 67.5324 257.344 67.5324 255.856V245.272H69.7164V255.832C69.7164 257.224 69.4364 258.4 68.8764 259.36C68.3164 260.304 67.5564 261.008 66.5964 261.472C65.6524 261.936 64.5884 262.168 63.4044 262.168C62.2204 262.168 61.1484 261.936 60.1884 261.472C59.2444 261.008 58.4924 260.304 57.9324 259.36C57.3884 258.4 57.1164 257.224 57.1164 255.832V245.272H59.3004ZM75.5437 245.272V262H73.3597V245.272H75.5437ZM90.8724 245.272C92.6964 245.272 94.2724 245.616 95.6004 246.304C96.9444 246.976 97.9684 247.944 98.6724 249.208C99.3924 250.472 99.7524 251.96 99.7524 253.672C99.7524 255.384 99.3924 256.872 98.6724 258.136C97.9684 259.384 96.9444 260.344 95.6004 261.016C94.2724 261.672 92.6964 262 90.8724 262H85.6644V245.272H90.8724ZM90.8724 260.2C93.0324 260.2 94.6804 259.632 95.8164 258.496C96.9524 257.344 97.5204 255.736 97.5204 253.672C97.5204 251.592 96.9444 249.968 95.7924 248.8C94.6564 247.632 93.0164 247.048 90.8724 247.048H87.8484V260.2H90.8724ZM114.633 254.92C114.633 255.336 114.609 255.776 114.561 256.24H104.049C104.129 257.536 104.569 258.552 105.369 259.288C106.185 260.008 107.169 260.368 108.321 260.368C109.265 260.368 110.049 260.152 110.673 259.72C111.313 259.272 111.761 258.68 112.017 257.944H114.369C114.017 259.208 113.313 260.24 112.257 261.04C111.201 261.824 109.889 262.216 108.321 262.216C107.073 262.216 105.953 261.936 104.961 261.376C103.985 260.816 103.217 260.024 102.657 259C102.097 257.96 101.817 256.76 101.817 255.4C101.817 254.04 102.089 252.848 102.633 251.824C103.177 250.8 103.937 250.016 104.913 249.472C105.905 248.912 107.041 248.632 108.321 248.632C109.569 248.632 110.673 248.904 111.633 249.448C112.593 249.992 113.329 250.744 113.841 251.704C114.369 252.648 114.633 253.72 114.633 254.92ZM112.377 254.464C112.377 253.632 112.193 252.92 111.825 252.328C111.457 251.72 110.953 251.264 110.313 250.96C109.689 250.64 108.993 250.48 108.225 250.48C107.121 250.48 106.177 250.832 105.393 251.536C104.625 252.24 104.185 253.216 104.073 254.464H112.377ZM122.172 262.216C121.164 262.216 120.26 262.048 119.46 261.712C118.66 261.36 118.028 260.88 117.564 260.272C117.1 259.648 116.844 258.936 116.796 258.136H119.052C119.116 258.792 119.42 259.328 119.964 259.744C120.524 260.16 121.252 260.368 122.148 260.368C122.98 260.368 123.636 260.184 124.116 259.816C124.596 259.448 124.836 258.984 124.836 258.424C124.836 257.848 124.58 257.424 124.068 257.152C123.556 256.864 122.764 256.584 121.692 256.312C120.716 256.056 119.916 255.8 119.292 255.544C118.684 255.272 118.156 254.88 117.708 254.368C117.276 253.84 117.06 253.152 117.06 252.304C117.06 251.632 117.26 251.016 117.66 250.456C118.06 249.896 118.628 249.456 119.364 249.136C120.1 248.8 120.94 248.632 121.884 248.632C123.34 248.632 124.516 249 125.412 249.736C126.308 250.472 126.788 251.48 126.852 252.76H124.668C124.62 252.072 124.34 251.52 123.828 251.104C123.332 250.688 122.66 250.48 121.812 250.48C121.028 250.48 120.404 250.648 119.94 250.984C119.476 251.32 119.244 251.76 119.244 252.304C119.244 252.736 119.38 253.096 119.652 253.384C119.94 253.656 120.292 253.88 120.708 254.056C121.14 254.216 121.732 254.4 122.484 254.608C123.428 254.864 124.196 255.12 124.788 255.376C125.38 255.616 125.884 255.984 126.3 256.48C126.732 256.976 126.956 257.624 126.972 258.424C126.972 259.144 126.772 259.792 126.372 260.368C125.972 260.944 125.404 261.4 124.668 261.736C123.948 262.056 123.116 262.216 122.172 262.216ZM131.183 246.712C130.767 246.712 130.415 246.568 130.127 246.28C129.839 245.992 129.695 245.64 129.695 245.224C129.695 244.808 129.839 244.456 130.127 244.168C130.415 243.88 130.767 243.736 131.183 243.736C131.583 243.736 131.919 243.88 132.191 244.168C132.479 244.456 132.623 244.808 132.623 245.224C132.623 245.64 132.479 245.992 132.191 246.28C131.919 246.568 131.583 246.712 131.183 246.712ZM132.239 248.848V262H130.055V248.848H132.239ZM142.369 248.608C143.969 248.608 145.265 249.096 146.257 250.072C147.249 251.032 147.745 252.424 147.745 254.248V262H145.585V254.56C145.585 253.248 145.257 252.248 144.601 251.56C143.945 250.856 143.049 250.504 141.913 250.504C140.761 250.504 139.841 250.864 139.153 251.584C138.481 252.304 138.145 253.352 138.145 254.728V262H135.961V248.848H138.145V250.72C138.577 250.048 139.161 249.528 139.897 249.16C140.649 248.792 141.473 248.608 142.369 248.608ZM156.737 248.632C157.873 248.632 158.865 248.88 159.713 249.376C160.577 249.872 161.217 250.496 161.633 251.248V248.848H163.841V262.288C163.841 263.488 163.585 264.552 163.073 265.48C162.561 266.424 161.825 267.16 160.865 267.688C159.921 268.216 158.817 268.48 157.553 268.48C155.825 268.48 154.385 268.072 153.233 267.256C152.081 266.44 151.401 265.328 151.193 263.92H153.353C153.593 264.72 154.089 265.36 154.841 265.84C155.593 266.336 156.497 266.584 157.553 266.584C158.753 266.584 159.729 266.208 160.481 265.456C161.249 264.704 161.633 263.648 161.633 262.288V259.528C161.201 260.296 160.561 260.936 159.713 261.448C158.865 261.96 157.873 262.216 156.737 262.216C155.569 262.216 154.505 261.928 153.545 261.352C152.601 260.776 151.857 259.968 151.313 258.928C150.769 257.888 150.497 256.704 150.497 255.376C150.497 254.032 150.769 252.856 151.313 251.848C151.857 250.824 152.601 250.032 153.545 249.472C154.505 248.912 155.569 248.632 156.737 248.632ZM161.633 255.4C161.633 254.408 161.433 253.544 161.033 252.808C160.633 252.072 160.089 251.512 159.401 251.128C158.729 250.728 157.985 250.528 157.169 250.528C156.353 250.528 155.609 250.72 154.937 251.104C154.265 251.488 153.729 252.048 153.329 252.784C152.929 253.52 152.729 254.384 152.729 255.376C152.729 256.384 152.929 257.264 153.329 258.016C153.729 258.752 154.265 259.32 154.937 259.72C155.609 260.104 156.353 260.296 157.169 260.296C157.985 260.296 158.729 260.104 159.401 259.72C160.089 259.32 160.633 258.752 161.033 258.016C161.433 257.264 161.633 256.392 161.633 255.4Z" fill="#1B1C37"/>
</svg>
