<svg width="220" height="272" viewBox="0 0 220 272" fill="none" xmlns="http://www.w3.org/2000/svg">
<path d="M220 110C220 170.751 170.751 220 110 220C49.2487 220 0 170.751 0 110C0 49.2487 49.2487 0 110 0C170.751 0 220 49.2487 220 110ZM33 110C33 152.526 67.4741 187 110 187C152.526 187 187 152.526 187 110C187 67.4741 152.526 33 110 33C67.4741 33 33 67.4741 33 110Z" fill="#EDEEFF"/>
<path d="M38.3749 49.8993C31.3941 44.0418 30.4128 33.5216 37.2478 27.4947C48.2377 17.804 61.0965 10.3687 75.0965 5.68439C94.3346 -0.752592 114.978 -1.74417 134.745 2.8193C154.511 7.38276 172.631 17.3235 187.1 31.5425C201.569 45.7614 211.825 63.7047 216.733 83.3886C221.64 103.072 221.009 123.73 214.909 143.078C208.809 162.425 197.477 179.709 182.166 193.018C166.856 206.327 148.163 215.143 128.155 218.491C113.595 220.928 98.7505 220.4 84.4975 217.003C75.6331 214.89 71.5606 205.141 74.9743 196.692C78.388 188.243 88.0151 184.355 96.997 185.894C105.466 187.345 114.157 187.375 122.709 185.944C136.714 183.6 149.799 177.429 160.517 168.113C171.234 158.796 179.166 146.698 183.436 133.154C187.706 119.611 188.148 105.151 184.713 91.372C181.277 77.5933 174.099 65.033 163.97 55.0797C153.841 45.1264 141.158 38.1679 127.321 34.9735C113.485 31.7791 99.0342 32.4732 85.5676 36.9791C77.3454 39.7302 69.6856 43.8368 62.8889 49.094C55.6808 54.6694 45.3556 55.7569 38.3749 49.8993Z" fill="#7579FF"/>
<path d="M92.6901 100.572L83.1141 123H78.0021L87.6501 101.148H75.3381V96.828H92.6901V100.572ZM95.7088 109.536C95.7088 105.384 96.4528 102.132 97.9408 99.78C99.4528 97.428 101.949 96.252 105.429 96.252C108.909 96.252 111.393 97.428 112.881 99.78C114.393 102.132 115.149 105.384 115.149 109.536C115.149 113.712 114.393 116.988 112.881 119.364C111.393 121.74 108.909 122.928 105.429 122.928C101.949 122.928 99.4528 121.74 97.9408 119.364C96.4528 116.988 95.7088 113.712 95.7088 109.536ZM110.181 109.536C110.181 107.76 110.061 106.272 109.821 105.072C109.605 103.848 109.149 102.852 108.453 102.084C107.781 101.316 106.773 100.932 105.429 100.932C104.085 100.932 103.065 101.316 102.369 102.084C101.697 102.852 101.241 103.848 101.001 105.072C100.785 106.272 100.677 107.76 100.677 109.536C100.677 111.36 100.785 112.896 101.001 114.144C101.217 115.368 101.673 116.364 102.369 117.132C103.065 117.876 104.085 118.248 105.429 118.248C106.773 118.248 107.793 117.876 108.489 117.132C109.185 116.364 109.641 115.368 109.857 114.144C110.073 112.896 110.181 111.36 110.181 109.536ZM118.406 103.2C118.406 101.376 118.934 99.948 119.99 98.916C121.07 97.884 122.45 97.368 124.13 97.368C125.81 97.368 127.178 97.884 128.234 98.916C129.314 99.948 129.854 101.376 129.854 103.2C129.854 105.048 129.314 106.488 128.234 107.52C127.178 108.552 125.81 109.068 124.13 109.068C122.45 109.068 121.07 108.552 119.99 107.52C118.934 106.488 118.406 105.048 118.406 103.2ZM141.518 97.8L127.37 123H122.474L136.586 97.8H141.518ZM124.094 100.392C122.774 100.392 122.114 101.328 122.114 103.2C122.114 105.096 122.774 106.044 124.094 106.044C124.742 106.044 125.246 105.816 125.606 105.36C125.966 104.88 126.146 104.16 126.146 103.2C126.146 101.328 125.462 100.392 124.094 100.392ZM134.21 117.564C134.21 115.716 134.738 114.288 135.794 113.28C136.874 112.248 138.254 111.732 139.934 111.732C141.614 111.732 142.97 112.248 144.002 113.28C145.058 114.288 145.586 115.716 145.586 117.564C145.586 119.412 145.058 120.852 144.002 121.884C142.97 122.916 141.614 123.432 139.934 123.432C138.23 123.432 136.85 122.916 135.794 121.884C134.738 120.852 134.21 119.412 134.21 117.564ZM139.898 114.756C138.53 114.756 137.846 115.692 137.846 117.564C137.846 119.46 138.53 120.408 139.898 120.408C141.242 120.408 141.914 119.46 141.914 117.564C141.914 115.692 141.242 114.756 139.898 114.756Z" fill="#5F6073"/>
<path d="M54.3004 245.272V255.856C54.3004 257.344 54.6604 258.448 55.3804 259.168C56.1164 259.888 57.1324 260.248 58.4284 260.248C59.7084 260.248 60.7084 259.888 61.4284 259.168C62.1644 258.448 62.5324 257.344 62.5324 255.856V245.272H64.7164V255.832C64.7164 257.224 64.4364 258.4 63.8764 259.36C63.3164 260.304 62.5564 261.008 61.5964 261.472C60.6524 261.936 59.5884 262.168 58.4044 262.168C57.2204 262.168 56.1484 261.936 55.1884 261.472C54.2444 261.008 53.4924 260.304 52.9324 259.36C52.3884 258.4 52.1164 257.224 52.1164 255.832V245.272H54.3004ZM75.1997 253.648L80.3357 262H77.8637L73.8557 255.472L70.0397 262H67.6157L72.7277 253.648L67.5917 245.272H70.0397L74.0717 251.824L77.9117 245.272H80.3597L75.1997 253.648ZM94.8724 245.272C96.6964 245.272 98.2724 245.616 99.6004 246.304C100.944 246.976 101.968 247.944 102.672 249.208C103.392 250.472 103.752 251.96 103.752 253.672C103.752 255.384 103.392 256.872 102.672 258.136C101.968 259.384 100.944 260.344 99.6004 261.016C98.2724 261.672 96.6964 262 94.8724 262H89.6644V245.272H94.8724ZM94.8724 260.2C97.0324 260.2 98.6804 259.632 99.8164 258.496C100.952 257.344 101.52 255.736 101.52 253.672C101.52 251.592 100.944 249.968 99.7924 248.8C98.6564 247.632 97.0164 247.048 94.8724 247.048H91.8484V260.2H94.8724ZM118.633 254.92C118.633 255.336 118.609 255.776 118.561 256.24H108.049C108.129 257.536 108.569 258.552 109.369 259.288C110.185 260.008 111.169 260.368 112.321 260.368C113.265 260.368 114.049 260.152 114.673 259.72C115.313 259.272 115.761 258.68 116.017 257.944H118.369C118.017 259.208 117.313 260.24 116.257 261.04C115.201 261.824 113.889 262.216 112.321 262.216C111.073 262.216 109.953 261.936 108.961 261.376C107.985 260.816 107.217 260.024 106.657 259C106.097 257.96 105.817 256.76 105.817 255.4C105.817 254.04 106.089 252.848 106.633 251.824C107.177 250.8 107.937 250.016 108.913 249.472C109.905 248.912 111.041 248.632 112.321 248.632C113.569 248.632 114.673 248.904 115.633 249.448C116.593 249.992 117.329 250.744 117.841 251.704C118.369 252.648 118.633 253.72 118.633 254.92ZM116.377 254.464C116.377 253.632 116.193 252.92 115.825 252.328C115.457 251.72 114.953 251.264 114.313 250.96C113.689 250.64 112.993 250.48 112.225 250.48C111.121 250.48 110.177 250.832 109.393 251.536C108.625 252.24 108.185 253.216 108.073 254.464H116.377ZM126.172 262.216C125.164 262.216 124.26 262.048 123.46 261.712C122.66 261.36 122.028 260.88 121.564 260.272C121.1 259.648 120.844 258.936 120.796 258.136H123.052C123.116 258.792 123.42 259.328 123.964 259.744C124.524 260.16 125.252 260.368 126.148 260.368C126.98 260.368 127.636 260.184 128.116 259.816C128.596 259.448 128.836 258.984 128.836 258.424C128.836 257.848 128.58 257.424 128.068 257.152C127.556 256.864 126.764 256.584 125.692 256.312C124.716 256.056 123.916 255.8 123.292 255.544C122.684 255.272 122.156 254.88 121.708 254.368C121.276 253.84 121.06 253.152 121.06 252.304C121.06 251.632 121.26 251.016 121.66 250.456C122.06 249.896 122.628 249.456 123.364 249.136C124.1 248.8 124.94 248.632 125.884 248.632C127.34 248.632 128.516 249 129.412 249.736C130.308 250.472 130.788 251.48 130.852 252.76H128.668C128.62 252.072 128.34 251.52 127.828 251.104C127.332 250.688 126.66 250.48 125.812 250.48C125.028 250.48 124.404 250.648 123.94 250.984C123.476 251.32 123.244 251.76 123.244 252.304C123.244 252.736 123.38 253.096 123.652 253.384C123.94 253.656 124.292 253.88 124.708 254.056C125.14 254.216 125.732 254.4 126.484 254.608C127.428 254.864 128.196 255.12 128.788 255.376C129.38 255.616 129.884 255.984 130.3 256.48C130.732 256.976 130.956 257.624 130.972 258.424C130.972 259.144 130.772 259.792 130.372 260.368C129.972 260.944 129.404 261.4 128.668 261.736C127.948 262.056 127.116 262.216 126.172 262.216ZM135.183 246.712C134.767 246.712 134.415 246.568 134.127 246.28C133.839 245.992 133.695 245.64 133.695 245.224C133.695 244.808 133.839 244.456 134.127 244.168C134.415 243.88 134.767 243.736 135.183 243.736C135.583 243.736 135.919 243.88 136.191 244.168C136.479 244.456 136.623 244.808 136.623 245.224C136.623 245.64 136.479 245.992 136.191 246.28C135.919 246.568 135.583 246.712 135.183 246.712ZM136.239 248.848V262H134.055V248.848H136.239ZM146.369 248.608C147.969 248.608 149.265 249.096 150.257 250.072C151.249 251.032 151.745 252.424 151.745 254.248V262H149.585V254.56C149.585 253.248 149.257 252.248 148.601 251.56C147.945 250.856 147.049 250.504 145.913 250.504C144.761 250.504 143.841 250.864 143.153 251.584C142.481 252.304 142.145 253.352 142.145 254.728V262H139.961V248.848H142.145V250.72C142.577 250.048 143.161 249.528 143.897 249.16C144.649 248.792 145.473 248.608 146.369 248.608ZM160.737 248.632C161.873 248.632 162.865 248.88 163.713 249.376C164.577 249.872 165.217 250.496 165.633 251.248V248.848H167.841V262.288C167.841 263.488 167.585 264.552 167.073 265.48C166.561 266.424 165.825 267.16 164.865 267.688C163.921 268.216 162.817 268.48 161.553 268.48C159.825 268.48 158.385 268.072 157.233 267.256C156.081 266.44 155.401 265.328 155.193 263.92H157.353C157.593 264.72 158.089 265.36 158.841 265.84C159.593 266.336 160.497 266.584 161.553 266.584C162.753 266.584 163.729 266.208 164.481 265.456C165.249 264.704 165.633 263.648 165.633 262.288V259.528C165.201 260.296 164.561 260.936 163.713 261.448C162.865 261.96 161.873 262.216 160.737 262.216C159.569 262.216 158.505 261.928 157.545 261.352C156.601 260.776 155.857 259.968 155.313 258.928C154.769 257.888 154.497 256.704 154.497 255.376C154.497 254.032 154.769 252.856 155.313 251.848C155.857 250.824 156.601 250.032 157.545 249.472C158.505 248.912 159.569 248.632 160.737 248.632ZM165.633 255.4C165.633 254.408 165.433 253.544 165.033 252.808C164.633 252.072 164.089 251.512 163.401 251.128C162.729 250.728 161.985 250.528 161.169 250.528C160.353 250.528 159.609 250.72 158.937 251.104C158.265 251.488 157.729 252.048 157.329 252.784C156.929 253.52 156.729 254.384 156.729 255.376C156.729 256.384 156.929 257.264 157.329 258.016C157.729 258.752 158.265 259.32 158.937 259.72C159.609 260.104 160.353 260.296 161.169 260.296C161.985 260.296 162.729 260.104 163.401 259.72C164.089 259.32 164.633 258.752 165.033 258.016C165.433 257.264 165.633 256.392 165.633 255.4Z" fill="#1B1C37"/>
</svg>
