<svg width="220" height="308" viewBox="0 0 220 308" fill="none" xmlns="http://www.w3.org/2000/svg">
<path d="M220 110C220 170.751 170.751 220 110 220C49.2487 220 0 170.751 0 110C0 49.2487 49.2487 0 110 0C170.751 0 220 49.2487 220 110ZM33 110C33 152.526 67.4741 187 110 187C152.526 187 187 152.526 187 110C187 67.4741 152.526 33 110 33C67.4741 33 33 67.4741 33 110Z" fill="#EDEEFF"/>
<path d="M38.3749 49.8993C31.3941 44.0418 30.4129 33.5213 37.2479 27.4944C52.5803 13.9745 71.469 4.91831 91.8448 1.50858C117.677 -2.81423 144.204 2.22206 166.654 15.7116C189.105 29.2011 206.005 50.2586 214.316 75.0965C222.626 99.9344 221.802 126.923 211.99 151.207C202.179 175.491 184.024 195.477 160.792 207.571C137.56 219.665 110.775 223.072 85.2554 217.181C59.7353 211.289 37.155 196.485 21.5758 175.431C9.28726 158.824 1.99078 139.188 0.353258 118.812C-0.376728 109.728 7.63726 102.842 16.7278 103.478C25.8183 104.113 32.49 112.068 33.8021 121.086C35.6197 133.578 40.4944 145.519 48.103 155.801C59.0085 170.539 74.8147 180.902 92.6788 185.027C110.543 189.151 129.292 186.766 145.555 178.3C161.817 169.834 174.525 155.844 181.393 138.845C188.261 121.846 188.838 102.954 183.021 85.5675C177.203 68.181 165.373 53.4408 149.658 43.9981C133.943 34.5554 115.374 31.03 97.2913 34.056C84.6753 36.1672 72.8738 41.3708 62.889 49.0938C55.6808 54.6691 45.3556 55.7569 38.3749 49.8993Z" fill="#7579FF"/>
<path d="M79.9119 115.62C80.1039 116.676 80.5359 117.492 81.2079 118.068C81.9039 118.62 82.8279 118.896 83.9799 118.896C85.4679 118.896 86.5479 118.284 87.2199 117.06C87.8919 115.812 88.2279 113.724 88.2279 110.796C87.6759 111.564 86.8959 112.164 85.8879 112.596C84.9039 113.028 83.8359 113.244 82.6839 113.244C81.1479 113.244 79.7559 112.932 78.5079 112.308C77.2839 111.66 76.3119 110.712 75.5919 109.464C74.8719 108.192 74.5119 106.656 74.5119 104.856C74.5119 102.192 75.3039 100.08 76.8879 98.52C78.4719 96.936 80.6319 96.144 83.3679 96.144C86.7759 96.144 89.1759 97.236 90.5679 99.42C91.9839 101.604 92.6919 104.892 92.6919 109.284C92.6919 112.404 92.4159 114.96 91.8639 116.952C91.3359 118.944 90.4119 120.456 89.0919 121.488C87.7959 122.52 86.0199 123.036 83.7639 123.036C81.9879 123.036 80.4759 122.7 79.2279 122.028C77.9799 121.332 77.0199 120.432 76.3479 119.328C75.6999 118.2 75.3279 116.964 75.2319 115.62H79.9119ZM83.7279 109.14C84.9759 109.14 85.9599 108.756 86.6799 107.988C87.3999 107.22 87.7599 106.188 87.7599 104.892C87.7599 103.476 87.3759 102.384 86.6079 101.616C85.8639 100.824 84.8439 100.428 83.5479 100.428C82.2519 100.428 81.2199 100.836 80.4519 101.652C79.7079 102.444 79.3359 103.5 79.3359 104.82C79.3359 106.092 79.6959 107.136 80.4159 107.952C81.1599 108.744 82.2639 109.14 83.7279 109.14ZM96.615 109.536C96.615 105.384 97.359 102.132 98.847 99.78C100.359 97.428 102.855 96.252 106.335 96.252C109.815 96.252 112.299 97.428 113.787 99.78C115.299 102.132 116.055 105.384 116.055 109.536C116.055 113.712 115.299 116.988 113.787 119.364C112.299 121.74 109.815 122.928 106.335 122.928C102.855 122.928 100.359 121.74 98.847 119.364C97.359 116.988 96.615 113.712 96.615 109.536ZM111.087 109.536C111.087 107.76 110.967 106.272 110.727 105.072C110.511 103.848 110.055 102.852 109.359 102.084C108.687 101.316 107.679 100.932 106.335 100.932C104.991 100.932 103.971 101.316 103.275 102.084C102.603 102.852 102.147 103.848 101.907 105.072C101.691 106.272 101.583 107.76 101.583 109.536C101.583 111.36 101.691 112.896 101.907 114.144C102.123 115.368 102.579 116.364 103.275 117.132C103.971 117.876 104.991 118.248 106.335 118.248C107.679 118.248 108.699 117.876 109.395 117.132C110.091 116.364 110.547 115.368 110.763 114.144C110.979 112.896 111.087 111.36 111.087 109.536ZM119.312 103.2C119.312 101.376 119.84 99.948 120.896 98.916C121.976 97.884 123.356 97.368 125.036 97.368C126.716 97.368 128.084 97.884 129.14 98.916C130.22 99.948 130.76 101.376 130.76 103.2C130.76 105.048 130.22 106.488 129.14 107.52C128.084 108.552 126.716 109.068 125.036 109.068C123.356 109.068 121.976 108.552 120.896 107.52C119.84 106.488 119.312 105.048 119.312 103.2ZM142.424 97.8L128.276 123H123.38L137.492 97.8H142.424ZM125 100.392C123.68 100.392 123.02 101.328 123.02 103.2C123.02 105.096 123.68 106.044 125 106.044C125.648 106.044 126.152 105.816 126.512 105.36C126.872 104.88 127.052 104.16 127.052 103.2C127.052 101.328 126.368 100.392 125 100.392ZM135.116 117.564C135.116 115.716 135.644 114.288 136.7 113.28C137.78 112.248 139.16 111.732 140.84 111.732C142.52 111.732 143.876 112.248 144.908 113.28C145.964 114.288 146.492 115.716 146.492 117.564C146.492 119.412 145.964 120.852 144.908 121.884C143.876 122.916 142.52 123.432 140.84 123.432C139.136 123.432 137.756 122.916 136.7 121.884C135.644 120.852 135.116 119.412 135.116 117.564ZM140.804 114.756C139.436 114.756 138.752 115.692 138.752 117.564C138.752 119.46 139.436 120.408 140.804 120.408C142.148 120.408 142.82 119.46 142.82 117.564C142.82 115.692 142.148 114.756 140.804 114.756Z" fill="#5F6073"/>
<path d="M74.8157 245.272V247.048H67.5437V252.688H73.4477V254.464H67.5437V262H65.3597V245.272H74.8157ZM78.5815 246.712C78.1655 246.712 77.8135 246.568 77.5255 246.28C77.2375 245.992 77.0935 245.64 77.0935 245.224C77.0935 244.808 77.2375 244.456 77.5255 244.168C77.8135 243.88 78.1655 243.736 78.5815 243.736C78.9815 243.736 79.3175 243.88 79.5895 244.168C79.8775 244.456 80.0215 244.808 80.0215 245.224C80.0215 245.64 79.8775 245.992 79.5895 246.28C79.3175 246.568 78.9815 246.712 78.5815 246.712ZM79.6375 248.848V262H77.4535V248.848H79.6375ZM88.7837 248.632C89.9197 248.632 90.9117 248.88 91.7597 249.376C92.6237 249.872 93.2637 250.496 93.6797 251.248V248.848H95.8877V262.288C95.8877 263.488 95.6317 264.552 95.1197 265.48C94.6077 266.424 93.8717 267.16 92.9117 267.688C91.9677 268.216 90.8637 268.48 89.5997 268.48C87.8717 268.48 86.4317 268.072 85.2797 267.256C84.1277 266.44 83.4477 265.328 83.2397 263.92H85.3997C85.6397 264.72 86.1357 265.36 86.8877 265.84C87.6397 266.336 88.5437 266.584 89.5997 266.584C90.7997 266.584 91.7757 266.208 92.5277 265.456C93.2957 264.704 93.6797 263.648 93.6797 262.288V259.528C93.2477 260.296 92.6077 260.936 91.7597 261.448C90.9117 261.96 89.9197 262.216 88.7837 262.216C87.6157 262.216 86.5517 261.928 85.5917 261.352C84.6477 260.776 83.9037 259.968 83.3597 258.928C82.8157 257.888 82.5437 256.704 82.5437 255.376C82.5437 254.032 82.8157 252.856 83.3597 251.848C83.9037 250.824 84.6477 250.032 85.5917 249.472C86.5517 248.912 87.6157 248.632 88.7837 248.632ZM93.6797 255.4C93.6797 254.408 93.4797 253.544 93.0797 252.808C92.6797 252.072 92.1357 251.512 91.4477 251.128C90.7757 250.728 90.0317 250.528 89.2157 250.528C88.3997 250.528 87.6557 250.72 86.9837 251.104C86.3117 251.488 85.7757 252.048 85.3757 252.784C84.9757 253.52 84.7757 254.384 84.7757 255.376C84.7757 256.384 84.9757 257.264 85.3757 258.016C85.7757 258.752 86.3117 259.32 86.9837 259.72C87.6557 260.104 88.3997 260.296 89.2157 260.296C90.0317 260.296 90.7757 260.104 91.4477 259.72C92.1357 259.32 92.6797 258.752 93.0797 258.016C93.4797 257.264 93.6797 256.392 93.6797 255.4ZM115.394 248.608C116.418 248.608 117.33 248.824 118.13 249.256C118.93 249.672 119.562 250.304 120.026 251.152C120.49 252 120.722 253.032 120.722 254.248V262H118.562V254.56C118.562 253.248 118.234 252.248 117.578 251.56C116.938 250.856 116.066 250.504 114.962 250.504C113.826 250.504 112.922 250.872 112.25 251.608C111.578 252.328 111.242 253.376 111.242 254.752V262H109.082V254.56C109.082 253.248 108.754 252.248 108.098 251.56C107.458 250.856 106.586 250.504 105.482 250.504C104.346 250.504 103.442 250.872 102.77 251.608C102.098 252.328 101.762 253.376 101.762 254.752V262H99.5785V248.848H101.762V250.744C102.194 250.056 102.77 249.528 103.49 249.16C104.226 248.792 105.034 248.608 105.914 248.608C107.018 248.608 107.994 248.856 108.842 249.352C109.69 249.848 110.322 250.576 110.738 251.536C111.106 250.608 111.714 249.888 112.562 249.376C113.41 248.864 114.354 248.608 115.394 248.608ZM123.489 255.376C123.489 254.032 123.761 252.856 124.305 251.848C124.849 250.824 125.593 250.032 126.537 249.472C127.497 248.912 128.561 248.632 129.729 248.632C130.881 248.632 131.881 248.88 132.729 249.376C133.577 249.872 134.209 250.496 134.625 251.248V248.848H136.833V262H134.625V259.552C134.193 260.32 133.545 260.96 132.681 261.472C131.833 261.968 130.841 262.216 129.705 262.216C128.537 262.216 127.481 261.928 126.537 261.352C125.593 260.776 124.849 259.968 124.305 258.928C123.761 257.888 123.489 256.704 123.489 255.376ZM134.625 255.4C134.625 254.408 134.425 253.544 134.025 252.808C133.625 252.072 133.081 251.512 132.393 251.128C131.721 250.728 130.977 250.528 130.161 250.528C129.345 250.528 128.601 250.72 127.929 251.104C127.257 251.488 126.721 252.048 126.321 252.784C125.921 253.52 125.721 254.384 125.721 255.376C125.721 256.384 125.921 257.264 126.321 258.016C126.721 258.752 127.257 259.32 127.929 259.72C128.601 260.104 129.345 260.296 130.161 260.296C130.977 260.296 131.721 260.104 132.393 259.72C133.081 259.32 133.625 258.752 134.025 258.016C134.425 257.264 134.625 256.392 134.625 255.4ZM155.082 239.392L148.506 266.08H146.346L152.898 239.392H155.082ZM63.1774 294.28H55.8814L54.5374 298H52.2334L58.2814 281.368H60.8014L66.8254 298H64.5214L63.1774 294.28ZM62.5534 292.504L59.5294 284.056L56.5054 292.504H62.5534ZM68.6453 291.376C68.6453 290.032 68.9173 288.856 69.4613 287.848C70.0053 286.824 70.7493 286.032 71.6933 285.472C72.6533 284.912 73.7253 284.632 74.9093 284.632C75.9333 284.632 76.8853 284.872 77.7653 285.352C78.6453 285.816 79.3173 286.432 79.7813 287.2V280.24H81.9893V298H79.7813V295.528C79.3493 296.312 78.7093 296.96 77.8613 297.472C77.0133 297.968 76.0213 298.216 74.8853 298.216C73.7173 298.216 72.6533 297.928 71.6933 297.352C70.7493 296.776 70.0053 295.968 69.4613 294.928C68.9173 293.888 68.6453 292.704 68.6453 291.376ZM79.7813 291.4C79.7813 290.408 79.5813 289.544 79.1813 288.808C78.7813 288.072 78.2373 287.512 77.5493 287.128C76.8773 286.728 76.1333 286.528 75.3173 286.528C74.5013 286.528 73.7573 286.72 73.0853 287.104C72.4133 287.488 71.8773 288.048 71.4773 288.784C71.0773 289.52 70.8773 290.384 70.8773 291.376C70.8773 292.384 71.0773 293.264 71.4773 294.016C71.8773 294.752 72.4133 295.32 73.0853 295.72C73.7573 296.104 74.5013 296.296 75.3173 296.296C76.1333 296.296 76.8773 296.104 77.5493 295.72C78.2373 295.32 78.7813 294.752 79.1813 294.016C79.5813 293.264 79.7813 292.392 79.7813 291.4ZM91.416 298.216C90.184 298.216 89.064 297.936 88.056 297.376C87.064 296.816 86.28 296.024 85.704 295C85.144 293.96 84.864 292.76 84.864 291.4C84.864 290.056 85.152 288.872 85.728 287.848C86.32 286.808 87.12 286.016 88.128 285.472C89.136 284.912 90.264 284.632 91.512 284.632C92.76 284.632 93.888 284.912 94.896 285.472C95.904 286.016 96.696 286.8 97.272 287.824C97.864 288.848 98.16 290.04 98.16 291.4C98.16 292.76 97.856 293.96 97.248 295C96.656 296.024 95.848 296.816 94.824 297.376C93.8 297.936 92.664 298.216 91.416 298.216ZM91.416 296.296C92.2 296.296 92.936 296.112 93.624 295.744C94.312 295.376 94.864 294.824 95.28 294.088C95.712 293.352 95.928 292.456 95.928 291.4C95.928 290.344 95.72 289.448 95.304 288.712C94.888 287.976 94.344 287.432 93.672 287.08C93 286.712 92.272 286.528 91.488 286.528C90.688 286.528 89.952 286.712 89.28 287.08C88.624 287.432 88.096 287.976 87.696 288.712C87.296 289.448 87.096 290.344 87.096 291.4C87.096 292.472 87.288 293.376 87.672 294.112C88.072 294.848 88.6 295.4 89.256 295.768C89.912 296.12 90.632 296.296 91.416 296.296ZM103.216 287.296C103.664 286.512 104.32 285.872 105.184 285.376C106.048 284.88 107.032 284.632 108.136 284.632C109.32 284.632 110.384 284.912 111.328 285.472C112.272 286.032 113.016 286.824 113.56 287.848C114.104 288.856 114.376 290.032 114.376 291.376C114.376 292.704 114.104 293.888 113.56 294.928C113.016 295.968 112.264 296.776 111.304 297.352C110.36 297.928 109.304 298.216 108.136 298.216C107 298.216 106 297.968 105.136 297.472C104.288 296.976 103.648 296.344 103.216 295.576V298H101.032V280.24H103.216V287.296ZM112.144 291.376C112.144 290.384 111.944 289.52 111.544 288.784C111.144 288.048 110.6 287.488 109.912 287.104C109.24 286.72 108.496 286.528 107.68 286.528C106.88 286.528 106.136 286.728 105.448 287.128C104.776 287.512 104.232 288.08 103.816 288.832C103.416 289.568 103.216 290.424 103.216 291.4C103.216 292.392 103.416 293.264 103.816 294.016C104.232 294.752 104.776 295.32 105.448 295.72C106.136 296.104 106.88 296.296 107.68 296.296C108.496 296.296 109.24 296.104 109.912 295.72C110.6 295.32 111.144 294.752 111.544 294.016C111.944 293.264 112.144 292.384 112.144 291.376ZM129.25 290.92C129.25 291.336 129.226 291.776 129.178 292.24H118.666C118.746 293.536 119.186 294.552 119.986 295.288C120.802 296.008 121.786 296.368 122.938 296.368C123.882 296.368 124.666 296.152 125.29 295.72C125.93 295.272 126.378 294.68 126.634 293.944H128.986C128.634 295.208 127.93 296.24 126.874 297.04C125.818 297.824 124.506 298.216 122.938 298.216C121.69 298.216 120.57 297.936 119.578 297.376C118.602 296.816 117.834 296.024 117.274 295C116.714 293.96 116.434 292.76 116.434 291.4C116.434 290.04 116.706 288.848 117.25 287.824C117.794 286.8 118.554 286.016 119.53 285.472C120.522 284.912 121.658 284.632 122.938 284.632C124.186 284.632 125.29 284.904 126.25 285.448C127.21 285.992 127.946 286.744 128.458 287.704C128.986 288.648 129.25 289.72 129.25 290.92ZM126.994 290.464C126.994 289.632 126.81 288.92 126.442 288.328C126.074 287.72 125.57 287.264 124.93 286.96C124.306 286.64 123.61 286.48 122.842 286.48C121.738 286.48 120.794 286.832 120.01 287.536C119.242 288.24 118.802 289.216 118.69 290.464H126.994ZM145.372 289.648L150.508 298H148.036L144.028 291.472L140.212 298H137.788L142.9 289.648L137.764 281.272H140.212L144.244 287.824L148.084 281.272H150.532L145.372 289.648ZM158.646 281.272C160.47 281.272 162.046 281.616 163.374 282.304C164.718 282.976 165.742 283.944 166.446 285.208C167.166 286.472 167.526 287.96 167.526 289.672C167.526 291.384 167.166 292.872 166.446 294.136C165.742 295.384 164.718 296.344 163.374 297.016C162.046 297.672 160.47 298 158.646 298H153.438V281.272H158.646ZM158.646 296.2C160.806 296.2 162.454 295.632 163.59 294.496C164.726 293.344 165.294 291.736 165.294 289.672C165.294 287.592 164.718 285.968 163.566 284.8C162.43 283.632 160.79 283.048 158.646 283.048H155.622V296.2H158.646Z" fill="#1B1C37"/>
</svg>
